<?xml version="1.0" encoding="UTF-8"?>
<!-- Generator: visioncortex VTracer 0.6.3 -->
<svg version="1.1" xmlns="http://www.w3.org/2000/svg" width="512" height="512">
<path d="M0 0 C9.17 8.95 13.39 22.35 13.71 34.92 C13.79 41.55 13.86 47.97 12.56 54.5 C13.76 55.02 14.95 55.53 16.19 56.06 C20.76 58.4 24.03 60.98 26.56 65.5 C27.71 69.14 28.22 72.7 28.56 76.5 C28.63 77.21 28.7 77.92 28.78 78.64 C29.23 88.06 26.74 98.35 23.69 107.19 C22.47 110.65 22.47 110.65 23.81 114 C24.68 115.24 24.68 115.24 25.56 116.5 C29.37 130.81 22.29 144.35 15.56 156.5 C14.96 157.42 14.37 158.33 13.75 159.28 C13.36 160.01 12.97 160.74 12.56 161.5 C12.89 162.49 13.22 163.48 13.56 164.5 C15.03 178.35 11.04 191.03 3.02 202.27 C1.61 204.43 0.94 205.97 0.56 208.5 C0.71 209.08 0.85 209.66 1 210.25 C2.61 216.68 1.27 222.77 -0.44 229 C-0.63 229.73 -0.82 230.45 -1.02 231.2 C-1.48 232.97 -1.96 234.74 -2.44 236.5 C-1.18 236.81 0.08 237.12 1.38 237.44 C3.82 238.04 6.17 238.7 8.56 239.5 C8.98 239.05 9.39 238.61 9.81 238.14 C17.57 230.02 26.31 224.63 37.75 224 C41.27 224.1 43.35 224.61 46.12 226.81 C50.99 232.18 50.06 239.55 49.75 246.43 C49.1 253.42 46.25 259.63 42.56 265.5 C43.52 266.4 43.52 266.4 44.5 267.31 C47.61 270.61 47.92 273.68 47.84 278.13 C46.56 289.16 39.98 298.33 31.5 305.16 C22.55 311.36 14.04 313.61 3.27 313.54 C2.01 313.54 0.75 313.53 -0.54 313.52 C-1.5 313.52 -2.45 313.51 -3.44 313.5 C-5.25 317.25 -7.07 321.01 -8.88 324.76 C-9.5 326.04 -10.11 327.31 -10.73 328.59 C-11.62 330.43 -12.51 332.27 -13.4 334.11 C-13.93 335.21 -14.47 336.32 -15.02 337.45 C-16.25 340.11 -17.38 342.77 -18.44 345.5 C-17.56 345.47 -16.68 345.43 -15.77 345.39 C-14.61 345.37 -13.45 345.34 -12.25 345.31 C-11.1 345.28 -9.95 345.24 -8.77 345.21 C-5.08 345.53 -3.32 346.22 -0.44 348.5 C3.02 353.39 2.15 359.83 1.56 365.5 C-1.34 377.21 -7.7 386.96 -18.09 393.25 C-25.46 397.16 -32.08 399.14 -40.44 399.5 C-40.57 400.38 -40.69 401.26 -40.83 402.16 C-41.39 405.24 -42.18 407.95 -43.23 410.89 C-49.04 427.53 -54.07 444.33 -58.81 461.31 C-59.11 462.38 -59.41 463.45 -59.72 464.56 C-62.92 476 -66.01 487.4 -68.4 499.05 C-69.93 504.15 -71.99 507.53 -76.44 510.5 C-80.88 510.97 -85.35 510.87 -89.81 510.88 C-91.04 510.9 -92.28 510.92 -93.55 510.95 C-95.33 510.96 -95.33 510.96 -97.15 510.96 C-98.23 510.97 -99.32 510.98 -100.44 510.99 C-104.23 510.37 -105.8 509.27 -108.44 506.5 C-111.13 501.1 -110.94 495.02 -111.22 489.09 C-111.31 487.42 -111.31 487.42 -111.4 485.71 C-111.59 482.14 -111.76 478.57 -111.94 475 C-112.93 455.1 -112.93 455.1 -114.34 435.22 C-114.4 434.34 -114.47 433.45 -114.53 432.54 C-115.23 424.6 -117.86 419.07 -122.44 412.5 C-123.12 411.44 -123.81 410.38 -124.51 409.29 C-140.31 385.43 -161.23 366.93 -186.44 353.5 C-187.43 352.97 -187.43 352.97 -188.45 352.43 C-204.2 344.2 -221.31 339.02 -238.44 334.5 C-238.82 332.84 -239.15 331.18 -239.44 329.5 C-237.42 327.48 -233.44 328.26 -230.69 328.25 C-197.27 328.3 -166.18 339.38 -138.44 357.5 C-163 306.84 -220.81 274.18 -271.49 256.27 C-273.44 255.5 -273.44 255.5 -274.44 254.5 C-274.62 252.06 -274.62 252.06 -274.44 249.5 C-272.44 247.5 -272.44 247.5 -270.06 247.35 C-244.19 249.09 -219.31 256.76 -195.44 266.5 C-195.73 265.8 -196.01 265.09 -196.31 264.37 C-199.53 255.81 -201.41 246.42 -198.44 237.5 C-199.72 235.4 -199.72 235.4 -201.56 233.19 C-208.59 223.51 -211.66 212.42 -211.44 200.5 C-211.22 199.47 -211 198.44 -210.78 197.38 C-210.18 194.55 -210.18 194.55 -211.48 192.4 C-212 191.75 -212.52 191.11 -213.06 190.44 C-219.96 180.97 -223.59 169.2 -222.44 157.5 C-221.47 155.48 -220.47 153.48 -219.44 151.5 C-219.61 147.66 -220.82 144.22 -221.94 140.56 C-225.36 129.37 -225.86 117.61 -221.25 106.69 C-218.67 103.57 -216.09 102.26 -212.44 100.5 C-211.45 100.5 -210.46 100.5 -209.44 100.5 C-209.77 99.51 -210.1 98.52 -210.44 97.5 C-212.67 82.21 -210.59 66.1 -201.77 53.09 C-199.06 49.85 -196.29 48.85 -192.22 48.09 C-183.56 47.35 -178.01 51.88 -171.5 57.03 C-163.77 64.03 -157.41 74.59 -154.44 84.5 C-153.74 84.44 -153.03 84.38 -152.31 84.32 C-146.48 84.05 -142.08 84.2 -137.28 87.71 C-128.57 96.19 -122.57 110.18 -122.38 122.31 C-122.41 123.89 -122.41 123.89 -122.44 125.5 C-121.72 125.56 -120.99 125.62 -120.25 125.69 C-115.19 127.15 -112.66 130.92 -110.12 135.31 C-109.57 136.36 -109.01 137.42 -108.44 138.5 C-107.84 137.57 -107.24 136.64 -106.62 135.69 C-104.44 132.5 -104.44 132.5 -102.81 131.06 C-101.02 129.03 -101.13 128.03 -101.29 125.36 C-101.32 124.54 -101.35 123.73 -101.38 122.89 C-101.42 122.02 -101.46 121.15 -101.5 120.25 C-101.76 108.29 -100.28 97.1 -93.02 87.14 C-91.44 85.5 -91.44 85.5 -88.19 84.06 C-85.32 82.84 -85.32 82.84 -84.79 80.64 C-84.5 78.95 -84.23 77.26 -83.98 75.57 C-81.7 62.6 -75.76 48.16 -65.25 39.75 C-60.05 37.44 -54.91 37.03 -49.44 38.5 C-48.94 37.45 -48.44 36.4 -47.93 35.32 C-43.02 25.09 -37.85 16.3 -29.44 8.5 C-28.51 7.63 -28.51 7.63 -27.56 6.75 C-19.44 -0.64 -10.86 -4.74 0 0 Z M-34.25 269.31 C-44.47 274.04 -54.23 275.92 -65.44 276.5 C-66.82 282.33 -67.9 288.12 -68.66 294.07 C-68.76 294.86 -68.86 295.64 -68.97 296.46 C-69.3 298.99 -69.62 301.53 -69.94 304.06 C-70.05 304.93 -70.16 305.79 -70.27 306.68 C-73.52 332.01 -73.52 332.01 -74.44 357.5 C-74.11 357.5 -73.78 357.5 -73.44 357.5 C-73.36 356.92 -73.29 356.33 -73.21 355.73 C-71.72 346.42 -68.2 338.15 -61.44 331.5 C-61.44 330.84 -61.44 330.18 -61.44 329.5 C-60.11 328.81 -58.78 328.15 -57.44 327.5 C-56.67 327.11 -55.91 326.72 -55.12 326.31 C-51.5 325.22 -49.1 325.58 -45.44 326.5 C-42.62 328.56 -42.62 328.56 -40.44 330.5 C-39.78 330.5 -39.12 330.5 -38.44 330.5 C-36.2 326.29 -34.02 322.06 -31.86 317.8 C-31.13 316.36 -30.38 314.93 -29.62 313.5 C-24.24 304.11 -24.24 304.11 -24.42 293.74 C-25.06 292.32 -25.73 290.9 -26.44 289.5 C-27.35 286.59 -27.56 284 -27.54 280.95 C-27.53 280.11 -27.53 279.26 -27.53 278.39 C-27.51 277.09 -27.51 277.09 -27.5 275.75 C-27.5 274.86 -27.49 273.97 -27.49 273.06 C-27.47 270.87 -27.46 268.69 -27.44 266.5 C-29.68 266.5 -32.31 268.37 -34.25 269.31 Z M-92.44 272.5 C-91.44 274.5 -91.44 274.5 -91.44 274.5 Z M-93.44 274.5 C-94.62 276 -95.79 277.53 -96.94 279.06 C-101.68 285.09 -107.1 289.28 -113.44 293.5 C-111.81 303.25 -109.62 312.86 -107.44 322.5 C-103.02 342.04 -103.02 342.04 -101.44 351.5 C-101.11 351.5 -100.78 351.5 -100.44 351.5 C-100.35 350.67 -100.35 350.67 -100.27 349.83 C-99.67 343.95 -99.07 338.08 -98.47 332.2 C-98.24 330.02 -98.02 327.85 -97.8 325.67 C-96.55 313.29 -95.2 300.95 -93.37 288.65 C-92.68 283.87 -92.3 279.33 -92.44 274.5 C-92.77 274.5 -93.1 274.5 -93.44 274.5 Z M-138.44 300.5 C-139.1 301.16 -139.76 301.82 -140.44 302.5 C-137.96 304.48 -137.96 304.48 -135.44 306.5 C-135.77 304.52 -136.1 302.54 -136.44 300.5 C-137.1 300.5 -137.76 300.5 -138.44 300.5 Z M-75.44 365.5 C-76.74 387.82 -76.54 410.15 -76.44 432.5 C-74.07 428.95 -72.88 425.27 -71.55 421.25 C-71.28 420.45 -71.01 419.64 -70.73 418.81 C-70.17 417.1 -69.61 415.39 -69.05 413.69 C-68.19 411.07 -67.31 408.46 -66.43 405.86 C-65.88 404.2 -65.34 402.54 -64.8 400.88 C-64.53 400.1 -64.26 399.32 -63.99 398.52 C-62.6 394.35 -62.6 394.35 -63.2 390.11 C-63.61 389.58 -64.02 389.05 -64.44 388.5 C-64.9 387.8 -65.36 387.1 -65.84 386.38 C-66.35 385.61 -66.85 384.85 -67.38 384.06 C-70.95 378.22 -72.24 372.19 -73.44 365.5 C-74.1 365.5 -74.76 365.5 -75.44 365.5 Z " fill="#8957A3" transform="translate(368.4375,1.5)"/>
<path d="M0 0 C9.17 8.95 13.39 22.35 13.71 34.92 C13.79 41.55 13.86 47.97 12.56 54.5 C13.76 55.02 14.96 55.53 16.19 56.06 C20.76 58.4 24.03 60.98 26.56 65.5 C27.71 69.14 28.22 72.7 28.56 76.5 C28.63 77.21 28.7 77.92 28.78 78.64 C29.23 88.06 26.74 98.35 23.69 107.19 C22.47 110.65 22.47 110.65 23.81 114 C24.39 114.83 24.97 115.65 25.56 116.5 C29.37 130.81 22.29 144.35 15.56 156.5 C14.96 157.42 14.37 158.33 13.75 159.28 C13.36 160.01 12.97 160.74 12.56 161.5 C12.89 162.49 13.22 163.48 13.56 164.5 C15.03 178.35 11.04 191.03 3.02 202.27 C1.6 204.44 1.03 205.98 0.56 208.5 C-0.5 212.3 -1.96 215.75 -3.75 219.25 C-4.33 220.39 -4.33 220.39 -4.93 221.55 C-7.47 224.83 -10.72 225.38 -14.71 226.06 C-16.53 226.28 -16.53 226.28 -18.39 226.5 C-19.05 226.58 -19.71 226.66 -20.39 226.75 C-22.49 227 -24.59 227.25 -26.69 227.5 C-36.98 228.62 -36.98 228.62 -47.14 230.55 C-52.68 231.9 -58.32 232.21 -64 232.62 C-65.1 232.71 -66.21 232.8 -67.35 232.89 C-70.04 233.1 -72.74 233.3 -75.44 233.5 C-75.05 228.18 -73.12 225.34 -69.5 221.62 C-69 221.1 -68.51 220.58 -68 220.05 C-57.43 209.15 -44.52 200.1 -28.85 199.38 C-25.23 199.36 -21.61 199.35 -17.99 199.46 C-12.74 199.43 -12.74 199.43 -8.46 196.66 C-6.96 194.67 -5.64 192.68 -4.44 190.5 C-5.28 190.64 -6.13 190.79 -7 190.94 C-10.47 191.51 -13.95 192.02 -17.44 192.5 C-18.21 192.61 -18.97 192.73 -19.77 192.84 C-25.9 193.34 -29.93 190.23 -34.44 186.5 C-39.92 181.02 -40.55 175.49 -40.56 168.06 C-40.53 166.21 -40.49 164.35 -40.44 162.5 C-43.79 164.16 -46.73 165.9 -49.44 168.5 C-50.03 171.02 -50 173.26 -50.02 175.85 C-50.72 180.26 -53.56 182.9 -56.45 186.18 C-58.17 188.19 -59.41 189.99 -60.62 192.31 C-62.52 195.65 -64.66 197.87 -67.44 200.5 C-68.1 201.49 -68.76 202.48 -69.44 203.5 C-70.76 202.18 -72.08 200.86 -73.44 199.5 C-73.56 200.08 -73.69 200.66 -73.81 201.25 C-74.89 205.13 -75.52 206.93 -79.06 209.12 C-86.4 212.11 -93.61 213.79 -101.44 211.5 C-102.54 209.52 -102.54 209.52 -103.44 207.5 C-105.75 206.77 -108.09 206.1 -110.44 205.5 C-110.77 204.84 -111.1 204.18 -111.44 203.5 C-112.43 203.17 -113.42 202.84 -114.44 202.5 C-114.44 208.11 -114.44 213.72 -114.44 219.5 C-116.85 219.34 -119.26 219.17 -121.66 219.01 C-125.36 219.43 -125.36 219.43 -130.44 224.5 C-130.77 208.66 -131.1 192.82 -131.44 176.5 C-132.43 177.49 -133.42 178.48 -134.44 179.5 C-135.1 179.17 -135.76 178.84 -136.44 178.5 C-124.09 167.2 -124.09 167.2 -116.38 167.19 C-114.92 167.34 -114.92 167.34 -113.44 167.5 C-113.77 163.21 -114.1 158.92 -114.44 154.5 C-114.77 154.5 -115.1 154.5 -115.44 154.5 C-115.44 149.88 -115.44 145.26 -115.44 140.5 C-117.33 141.76 -119.23 143.02 -121.19 144.31 C-122.25 145.02 -123.32 145.73 -124.42 146.46 C-127.35 148.37 -127.35 148.37 -129.59 150.27 C-132.21 152.01 -134.35 151.48 -137.34 150.93 C-138.03 150.79 -138.73 150.65 -139.44 150.5 C-140.7 150.29 -141.95 150.09 -143.25 149.88 C-146.44 148.5 -146.44 148.5 -148.25 145 C-148.84 143.27 -148.84 143.27 -149.44 141.5 C-150.1 140.84 -150.76 140.18 -151.44 139.5 C-149.79 137.52 -148.14 135.54 -146.44 133.5 C-147.69 133.39 -148.95 133.28 -150.25 133.16 C-155.78 132.54 -161.1 131.28 -166.5 129.94 C-167.46 129.7 -168.42 129.47 -169.41 129.23 C-171.76 128.66 -174.1 128.08 -176.44 127.5 C-176.77 126.18 -177.1 124.86 -177.44 123.5 C-176.78 123.5 -176.12 123.5 -175.44 123.5 C-175.69 122.39 -175.93 121.27 -176.19 120.12 C-176.89 114.6 -174.79 110.4 -172.44 105.5 C-172.13 104.85 -171.82 104.2 -171.5 103.53 C-170.84 102.18 -170.14 100.84 -169.44 99.5 C-170.43 100 -170.43 100 -171.44 100.5 C-174.11 100.63 -176.76 100.54 -179.44 100.5 C-180.43 98.52 -181.42 96.54 -182.44 94.5 C-186.36 94.12 -188.75 94.47 -192.06 96.5 C-195.44 98.5 -195.44 98.5 -199.44 98.5 C-199.44 99.82 -199.44 101.14 -199.44 102.5 C-198.49 102.74 -198.49 102.74 -197.53 102.98 C-191.45 104.64 -186.58 106.86 -181.44 110.5 C-181.79 120.6 -181.79 120.6 -184.38 124.19 C-186.44 125.5 -186.44 125.5 -188.44 125.5 C-188.44 126.16 -188.44 126.82 -188.44 127.5 C-189.68 128.18 -190.93 128.84 -192.19 129.5 C-192.88 129.87 -193.58 130.24 -194.3 130.62 C-196.44 131.5 -196.44 131.5 -200.44 131.5 C-200.44 130.84 -200.44 130.18 -200.44 129.5 C-201.16 129.23 -201.88 128.96 -202.62 128.69 C-205.44 127.5 -205.44 127.5 -207.88 126 C-210.65 124.37 -213.38 123.48 -216.44 122.5 C-215.5 125.04 -214.57 127.58 -213.62 130.12 C-213.36 130.84 -213.1 131.55 -212.83 132.29 C-211.6 135.6 -210.32 138.73 -208.74 141.9 C-207.44 144.5 -207.44 144.5 -207.44 146.5 C-206.68 146.48 -205.91 146.45 -205.13 146.43 C-188.05 146.13 -173.21 151.95 -160.75 163.75 C-155.19 169.52 -149.87 176.21 -149.44 184.5 C-156.61 186.83 -164.93 183.54 -171.76 181.09 C-174.25 180.54 -176.06 180.52 -178.59 180.62 C-184.14 180.71 -188.77 179.02 -193.94 177.12 C-195.72 176.49 -197.5 175.85 -199.28 175.23 C-200.57 174.77 -200.57 174.77 -201.88 174.3 C-204.38 173.52 -206.81 173.02 -209.38 172.57 C-212.49 171.93 -213.25 171.69 -215.56 169.33 C-215.99 168.48 -216.43 167.63 -216.88 166.75 C-217.34 165.86 -217.8 164.96 -218.28 164.04 C-220.91 158.28 -220.91 158.28 -221.44 155.5 C-220.8 154.15 -220.14 152.82 -219.44 151.5 C-219.71 147.68 -220.82 144.2 -221.94 140.56 C-225.36 129.37 -225.86 117.61 -221.25 106.69 C-218.67 103.57 -216.09 102.26 -212.44 100.5 C-211.45 100.5 -210.46 100.5 -209.44 100.5 C-209.77 99.51 -210.1 98.52 -210.44 97.5 C-212.67 82.21 -210.59 66.1 -201.77 53.09 C-199.06 49.85 -196.29 48.85 -192.22 48.09 C-183.56 47.35 -178.01 51.88 -171.5 57.03 C-163.77 64.03 -157.41 74.59 -154.44 84.5 C-153.74 84.44 -153.03 84.38 -152.31 84.32 C-146.48 84.05 -142.08 84.2 -137.28 87.71 C-128.57 96.19 -122.57 110.18 -122.38 122.31 C-122.4 123.36 -122.42 124.42 -122.44 125.5 C-121.35 125.59 -121.35 125.59 -120.25 125.69 C-115.19 127.15 -112.66 130.92 -110.12 135.31 C-109.57 136.36 -109.01 137.42 -108.44 138.5 C-107.84 137.57 -107.24 136.64 -106.62 135.69 C-104.44 132.5 -104.44 132.5 -102.81 131.06 C-101.02 129.03 -101.13 128.03 -101.29 125.36 C-101.32 124.54 -101.35 123.73 -101.38 122.89 C-101.42 122.02 -101.46 121.15 -101.5 120.25 C-101.76 108.29 -100.28 97.1 -93.02 87.14 C-91.44 85.5 -91.44 85.5 -88.19 84.06 C-85.32 82.84 -85.32 82.84 -84.79 80.64 C-84.5 78.95 -84.23 77.26 -83.98 75.57 C-81.7 62.6 -75.76 48.16 -65.25 39.75 C-60.05 37.44 -54.91 37.03 -49.44 38.5 C-48.94 37.45 -48.44 36.4 -47.93 35.32 C-43.02 25.09 -37.85 16.3 -29.44 8.5 C-28.51 7.63 -28.51 7.63 -27.56 6.75 C-19.44 -0.64 -10.86 -4.74 0 0 Z " fill="#9A68B5" transform="translate(368.4375,1.5)"/>
<path d="M0 0 C19.3 1.3 38.33 6.01 56.62 12.15 C57.44 12.42 58.27 12.68 59.11 12.96 C69.15 16.24 75.99 18.78 81.62 28.15 C91.12 40.11 103.23 49.54 118.62 52.15 C119.37 52.2 120.12 52.25 120.89 52.3 C126.81 52.71 129.4 53.93 133.62 58.15 C133.66 57.39 133.7 56.63 133.75 55.84 C134.62 53.15 134.62 53.15 137 51.46 C140.97 50.03 144.77 49.3 148.94 48.68 C151.69 48.14 154.04 47.22 156.62 46.15 C161.04 63.41 165.42 80.62 168.62 98.15 C170.42 96.35 170.01 93.58 170.2 91.14 C170.36 89.19 170.36 89.19 170.52 87.21 C170.61 86.16 170.61 86.16 170.69 85.08 C171.82 71.28 173.37 57.56 175.25 43.84 C175.36 43.03 175.47 42.22 175.58 41.39 C175.89 39.08 176.21 36.78 176.54 34.48 C176.63 33.79 176.72 33.11 176.82 32.4 C177.27 29.27 177.77 26.2 178.62 23.15 C186.1 24.03 192.83 24.83 199.62 28.15 C201.28 28.52 202.95 28.86 204.62 29.15 C204.37 31.01 204.37 31.01 204.12 32.91 C200.43 60.61 197.36 88.22 195.74 116.12 C195.63 117.95 195.52 119.77 195.41 121.59 C194.18 141.75 194.52 161.97 194.62 182.15 C194.97 181.04 195.33 179.93 195.69 178.79 C197 174.67 198.32 170.56 199.64 166.45 C200.21 164.67 200.78 162.89 201.34 161.11 C202.16 158.55 202.98 156 203.8 153.44 C204.18 152.24 204.18 152.24 204.56 151.02 C206.39 145.38 206.39 145.38 208.62 143.15 C215.02 143.37 218.25 145.67 222.62 150.15 C226.31 151.04 226.31 151.04 229.62 151.15 C229.03 157.97 226.69 164.04 224.43 170.46 C219.49 184.81 215.32 199.35 211.25 213.96 C210.8 215.57 210.8 215.57 210.34 217.21 C207.14 228.65 204.05 240.06 201.65 251.7 C200.13 256.81 198.07 260.19 193.62 263.15 C189.18 263.62 184.71 263.52 180.25 263.53 C179.01 263.55 177.78 263.58 176.51 263.6 C175.32 263.61 174.13 263.61 172.91 263.61 C171.82 263.62 170.74 263.63 169.62 263.64 C165.83 263.02 164.26 261.93 161.62 259.15 C158.93 253.75 159.11 247.67 158.84 241.75 C158.75 240.07 158.75 240.07 158.66 238.37 C158.47 234.79 158.3 231.22 158.12 227.65 C157.13 207.75 157.13 207.75 155.72 187.88 C155.65 186.99 155.59 186.11 155.53 185.2 C154.83 177.25 152.2 171.73 147.62 165.15 C146.94 164.09 146.25 163.03 145.55 161.94 C129.75 138.09 108.83 119.58 83.62 106.15 C82.96 105.8 82.29 105.44 81.61 105.08 C65.86 96.85 48.75 91.67 31.62 87.15 C31.24 85.5 30.91 83.83 30.62 82.15 C32.64 80.13 36.62 80.91 39.37 80.9 C72.79 80.95 103.88 92.03 131.62 110.15 C107.06 59.49 49.25 26.83 -1.43 8.92 C-3.38 8.15 -3.38 8.15 -4.38 7.15 C-4.57 4.71 -4.57 4.71 -4.38 2.15 C-2.38 0.15 -2.38 0.15 0 0 Z " fill="#A1CA5C" transform="translate(98.37890625,248.84765625)"/>
<path d="M0 0 C12.84 7.85 22.79 20.14 27.16 34.68 C27.86 34.62 28.56 34.56 29.28 34.5 C35.12 34.22 39.51 34.37 44.32 37.88 C53.02 46.36 59.02 60.36 59.22 72.49 C59.2 73.54 59.18 74.59 59.16 75.68 C60.24 75.77 60.24 75.77 61.34 75.86 C66.4 77.32 68.94 81.1 71.47 85.49 C72.03 86.54 72.58 87.59 73.16 88.68 C73.69 87.75 74.23 86.82 74.78 85.86 C77.52 82.19 78.81 81.07 83.16 79.68 C92.31 78.35 98.7 80.35 106.16 85.68 C115.36 92.91 115.36 92.91 117.09 96.73 C117.18 99.38 116.36 100.23 114.66 102.24 C112.16 105.33 110.02 108.46 107.97 111.86 C103.71 118.7 98.46 124.64 93.16 130.68 C94.36 131.85 94.36 131.85 95.59 133.05 C98.16 135.68 98.16 135.68 99.22 137.74 C99.16 139.68 99.16 139.68 97.34 141.68 C96.62 142.34 95.9 143 95.16 143.68 C94.81 144.4 94.46 145.12 94.09 145.86 C93.16 147.68 93.16 147.68 90.16 148.68 C85.48 149.21 82.17 149.3 78.09 146.8 C76.16 144.68 76.16 144.68 76.16 142.68 C75.17 142.35 74.18 142.02 73.16 141.68 C73.16 141.02 73.16 140.36 73.16 139.68 C72.39 139.39 71.63 139.1 70.84 138.8 C68.16 137.68 68.16 137.68 65.16 135.68 C65.16 137.99 65.16 140.3 65.16 142.68 C61.69 143.67 61.69 143.67 58.16 144.68 C56.29 151.6 55.98 158.03 56.49 165.14 C56.57 167.14 56.57 167.14 56.16 170.68 C54.51 172 52.86 173.32 51.16 174.68 C50.83 158.84 50.5 143 50.16 126.68 C49.17 127.67 48.18 128.66 47.16 129.68 C46.5 129.35 45.84 129.02 45.16 128.68 C57.5 117.38 57.5 117.38 65.22 117.36 C66.19 117.47 67.16 117.57 68.16 117.68 C67.83 113.39 67.5 109.1 67.16 104.68 C66.83 104.68 66.5 104.68 66.16 104.68 C66.16 100.06 66.16 95.44 66.16 90.68 C64.26 91.93 62.36 93.19 60.41 94.49 C59.34 95.2 58.27 95.9 57.17 96.63 C54.24 98.55 54.24 98.55 52 100.45 C49.38 102.19 47.24 101.65 44.25 101.11 C43.56 100.97 42.87 100.82 42.16 100.68 C40.9 100.47 39.64 100.26 38.34 100.05 C35.16 98.68 35.16 98.68 33.34 95.18 C32.76 93.44 32.76 93.44 32.16 91.68 C31.5 91.02 30.84 90.36 30.16 89.68 C31.81 87.7 33.46 85.72 35.16 83.68 C33.9 83.56 32.64 83.45 31.35 83.34 C25.81 82.72 20.49 81.45 15.09 80.11 C14.13 79.88 13.17 79.65 12.18 79.4 C9.84 78.83 7.5 78.26 5.16 77.68 C4.83 76.36 4.5 75.04 4.16 73.68 C4.82 73.68 5.48 73.68 6.16 73.68 C5.91 72.56 5.66 71.45 5.41 70.3 C4.7 64.77 6.8 60.58 9.16 55.68 C9.47 55.03 9.78 54.38 10.09 53.71 C10.76 52.35 11.45 51.01 12.16 49.68 C11.17 50.17 11.17 50.17 10.16 50.68 C7.48 50.81 4.83 50.72 2.16 50.68 C1.17 48.7 0.18 46.72 -0.84 44.68 C-4.77 44.29 -7.16 44.64 -10.47 46.68 C-13.84 48.68 -13.84 48.68 -17.84 48.68 C-17.84 50 -17.84 51.32 -17.84 52.68 C-16.9 52.91 -16.9 52.91 -15.94 53.16 C-9.86 54.81 -4.99 57.04 0.16 60.68 C-0.19 70.77 -0.19 70.77 -2.78 74.36 C-4.84 75.68 -4.84 75.68 -6.84 75.68 C-6.84 76.34 -6.84 77 -6.84 77.68 C-8.09 78.35 -9.34 79.02 -10.59 79.68 C-11.29 80.05 -11.99 80.42 -12.7 80.8 C-14.84 81.68 -14.84 81.68 -18.84 81.68 C-18.84 81.02 -18.84 80.36 -18.84 79.68 C-19.57 79.41 -20.29 79.14 -21.03 78.86 C-23.84 77.68 -23.84 77.68 -26.28 76.18 C-29.06 74.55 -31.78 73.65 -34.84 72.68 C-33.91 75.22 -32.97 77.76 -32.03 80.3 C-31.77 81.01 -31.51 81.73 -31.24 82.46 C-30.01 85.77 -28.73 88.91 -27.14 92.07 C-25.84 94.68 -25.84 94.68 -25.84 96.68 C-25.08 96.65 -24.32 96.63 -23.54 96.61 C-6.46 96.31 8.38 102.13 20.84 113.93 C26.4 119.7 31.72 126.38 32.16 134.68 C24.99 137.01 16.66 133.71 9.84 131.26 C7.34 130.72 5.53 130.7 3.01 130.8 C-2.55 130.89 -7.18 129.2 -12.34 127.3 C-14.12 126.66 -15.9 126.03 -17.69 125.4 C-18.55 125.1 -19.41 124.79 -20.29 124.48 C-22.79 123.69 -25.21 123.2 -27.79 122.75 C-30.9 122.1 -31.66 121.86 -33.96 119.5 C-34.4 118.65 -34.83 117.8 -35.28 116.93 C-35.98 115.58 -35.98 115.58 -36.68 114.21 C-39.31 108.46 -39.31 108.46 -39.84 105.68 C-39.21 104.33 -38.54 102.99 -37.84 101.68 C-38.12 97.86 -39.22 94.38 -40.34 90.74 C-43.76 79.54 -44.27 67.79 -39.66 56.86 C-37.07 53.75 -34.5 52.44 -30.84 50.68 C-29.85 50.68 -28.86 50.68 -27.84 50.68 C-28.34 49.19 -28.34 49.19 -28.84 47.68 C-31.08 32.39 -29 16.28 -20.18 3.27 C-15.17 -2.72 -6.71 -3.12 0 0 Z " fill="#AE7FC6" transform="translate(186.84375,51.32421875)"/>
<path d="M0 0 C2.67 2.11 3.99 3.74 5.07 6.98 C5.93 19.14 4.71 29.42 -1.93 39.98 C-1.29 40.58 -0.65 41.18 0.01 41.79 C3.12 45.09 3.43 48.16 3.34 52.61 C2.07 63.64 -4.51 72.81 -12.99 79.64 C-21.94 85.84 -30.45 88.09 -41.23 88.02 C-42.48 88.02 -43.74 88.01 -45.03 88 C-45.99 88 -46.95 87.99 -47.93 87.98 C-49.75 91.73 -51.56 95.49 -53.37 99.24 C-53.99 100.52 -54.61 101.79 -55.22 103.07 C-56.11 104.91 -57 106.75 -57.89 108.59 C-58.42 109.69 -58.96 110.8 -59.51 111.93 C-60.75 114.59 -61.88 117.25 -62.93 119.98 C-62.05 119.95 -61.17 119.91 -60.26 119.88 C-59.1 119.85 -57.94 119.82 -56.74 119.79 C-55.59 119.76 -54.45 119.72 -53.26 119.69 C-49.58 120.01 -47.81 120.7 -44.93 122.98 C-41.47 127.87 -42.34 134.31 -42.93 139.98 C-45.83 151.69 -52.19 161.44 -62.58 167.73 C-72.14 172.81 -81.38 175.46 -92.11 172.72 C-94.56 171.72 -95.36 170.07 -96.93 167.98 C-98.97 167.41 -98.97 167.41 -101.3 167.04 C-105.94 166.17 -107.96 164.78 -110.93 160.98 C-111.36 160.44 -111.79 159.89 -112.23 159.33 C-118.85 150.05 -119.99 138.22 -118.3 127.23 C-116.14 117.27 -111 108.06 -103.05 101.67 C-99.47 99.73 -97 99.05 -92.93 98.98 C-89.15 100.46 -86.08 102.44 -82.93 104.98 C-82.66 104.11 -82.39 103.24 -82.11 102.34 C-80.98 99.11 -79.62 96.29 -78 93.28 C-77.46 92.21 -76.91 91.15 -76.34 90.05 C-75.19 87.84 -74.02 85.64 -72.83 83.45 C-69.16 76.24 -69.16 76.24 -70.01 68.43 C-70.63 66.94 -71.27 65.46 -71.93 63.98 C-74.79 54.28 -73.95 42.76 -69.53 33.75 C-64.25 24.61 -58.48 16.98 -48.93 11.98 C-44.27 10.85 -40.19 11.85 -35.93 13.98 C-35.52 13.53 -35.1 13.09 -34.68 12.62 C-26.85 4.43 -11.89 -6.28 0 0 Z " fill="#9663B0" transform="translate(412.9296875,227.01953125)"/>
<path d="M0 0 C9.17 8.95 13.39 22.35 13.71 34.92 C13.79 41.55 13.86 47.97 12.56 54.5 C13.76 55.02 14.95 55.53 16.19 56.06 C20.76 58.4 24.03 60.98 26.56 65.5 C27.71 69.14 28.22 72.7 28.56 76.5 C28.63 77.21 28.7 77.92 28.78 78.64 C29.23 88.03 26.76 98.32 23.69 107.12 C22.49 110.77 22.48 111.27 23.88 115.12 C24.43 115.91 24.99 116.69 25.56 117.5 C24.9 118.16 24.24 118.82 23.56 119.5 C22.24 119.5 20.92 119.5 19.56 119.5 C19.56 120.16 19.56 120.82 19.56 121.5 C14.83 123.22 10.19 124.21 5.25 125.06 C0.52 125.5 0.52 125.5 -3.44 127.5 C-5.87 128.02 -8.3 128.5 -10.75 128.94 C-11.47 129.07 -12.2 129.21 -12.95 129.35 C-17.18 130.13 -21.42 130.78 -25.69 131.38 C-31.08 132.23 -35.71 134.09 -40.65 136.38 C-43.59 137.56 -46.31 138.09 -49.44 138.5 C-48.53 130.3 -40.45 123.85 -34.29 118.86 C-24.21 111.43 -13.17 106.64 -0.63 106.11 C3.05 105.93 6 105.59 9.56 104.5 C12.83 100.51 14.25 96.44 15.56 91.5 C16.06 90.02 16.06 90.02 16.56 88.5 C15.52 88.87 14.48 89.25 13.41 89.63 C-1.31 94.7 -1.31 94.7 -9.44 92.5 C-10.1 92.17 -10.76 91.84 -11.44 91.5 C-11.44 90.84 -11.44 90.18 -11.44 89.5 C-13.42 88.51 -13.42 88.51 -15.44 87.5 C-15.44 86.84 -15.44 86.18 -15.44 85.5 C-16.1 85.5 -16.76 85.5 -17.44 85.5 C-21.11 82.57 -22.15 80.26 -22.69 75.62 C-22.95 70.24 -22.95 70.24 -21.09 67.56 C-18.96 65.88 -16.88 64.69 -14.44 63.5 C-13.45 63.02 -12.47 62.53 -11.45 62.04 C-8.8 60.8 -6.14 59.62 -3.44 58.5 C-3.44 57.51 -3.44 56.52 -3.44 55.5 C-4.32 55.09 -5.21 54.67 -6.12 54.25 C-9.44 52.5 -9.44 52.5 -12.06 50.38 C-14.32 48.59 -15.64 47.91 -18.44 47.5 C-19.1 49.81 -19.76 52.12 -20.44 54.5 C-21.65 54.52 -22.87 54.54 -24.12 54.56 C-24.81 54.57 -25.49 54.59 -26.2 54.6 C-28.69 54.49 -31 54.04 -33.44 53.5 C-32.86 54.51 -32.28 55.53 -31.69 56.57 C-30.94 57.92 -30.19 59.27 -29.44 60.62 C-29.06 61.29 -28.67 61.96 -28.28 62.64 C-26.07 66.67 -24.46 69.81 -25.44 74.5 C-27.24 76.61 -28.83 78.2 -30.94 79.94 C-31.48 80.41 -32.03 80.88 -32.59 81.37 C-33.69 82.32 -34.79 83.26 -35.9 84.2 C-37.93 85.92 -39.9 87.71 -41.88 89.5 C-43.97 91.35 -45.62 92.59 -48.12 93.88 C-52.48 96.94 -54.9 102.17 -56.08 107.29 C-56.2 108.02 -56.32 108.75 -56.44 109.5 C-58.71 110.17 -60.98 110.84 -63.25 111.5 C-64.51 111.87 -65.78 112.24 -67.08 112.62 C-70.44 113.5 -70.44 113.5 -73.44 113.5 C-74.82 111.87 -76.15 110.2 -77.44 108.5 C-78.1 108.17 -78.76 107.84 -79.44 107.5 C-79.44 106.84 -79.44 106.18 -79.44 105.5 C-80.92 105 -80.92 105 -82.44 104.5 C-82.44 103.84 -82.44 103.18 -82.44 102.5 C-83.4 102.31 -83.4 102.31 -84.38 102.12 C-85.4 101.82 -85.4 101.82 -86.44 101.5 C-86.77 100.84 -87.1 100.18 -87.44 99.5 C-88.43 99.17 -89.42 98.84 -90.44 98.5 C-90.77 101.47 -91.1 104.44 -91.44 107.5 C-93.75 107.5 -96.06 107.5 -98.44 107.5 C-100.16 100.91 -98.47 96.48 -95.44 90.5 C-93.23 87.04 -92.17 85.78 -88.31 84.31 C-85.34 82.86 -85.34 82.86 -84.79 80.62 C-84.49 78.94 -84.23 77.26 -83.98 75.57 C-81.7 62.6 -75.76 48.16 -65.25 39.75 C-60.05 37.44 -54.91 37.03 -49.44 38.5 C-48.94 37.45 -48.44 36.4 -47.93 35.32 C-43.02 25.09 -37.85 16.3 -29.44 8.5 C-28.82 7.92 -28.2 7.35 -27.56 6.75 C-19.44 -0.64 -10.86 -4.74 0 0 Z " fill="#AA7CC2" transform="translate(368.4375,1.5)"/>
<path d="M0 0 C19.3 1.3 38.33 6.01 56.62 12.15 C57.44 12.42 58.27 12.68 59.11 12.96 C69.15 16.24 75.99 18.78 81.62 28.15 C91.12 40.11 103.23 49.54 118.62 52.15 C119.71 52.19 119.71 52.19 120.82 52.23 C126.45 52.49 129.82 53.85 133.9 57.82 C137.28 62.4 138.36 67.68 139.62 73.15 C139.92 74.38 140.22 75.61 140.52 76.88 C141.25 79.97 141.95 83.05 142.62 86.15 C145.53 87.04 146.43 87.21 149.43 86.21 C153.07 85 155.81 84.79 159.62 85.15 C161.7 86.7 162.51 87.62 163.06 90.17 C163.09 90.94 163.12 91.7 163.15 92.5 C163.19 93.37 163.22 94.25 163.27 95.15 C163.29 96.09 163.32 97.04 163.35 98.01 C163.41 99.47 163.41 99.47 163.47 100.96 C163.6 104.09 163.7 107.21 163.81 110.34 C163.89 112.43 163.97 114.51 164.06 116.6 C164.38 124.79 164.67 132.96 164.62 141.15 C161.25 140.03 160.47 139.08 158.25 136.4 C155.5 133.16 152.67 130.11 149.62 127.15 C148.63 130.45 147.64 133.75 146.62 137.15 C145.96 137.15 145.3 137.15 144.62 137.15 C144.68 137.83 144.74 138.51 144.81 139.21 C144.48 144.33 141.89 148.64 139.62 153.15 C138.5 151.81 138.5 151.81 137.35 150.44 C121.84 132.06 104.9 117.49 83.62 106.15 C82.96 105.8 82.29 105.44 81.61 105.08 C65.86 96.85 48.75 91.67 31.62 87.15 C31.24 85.5 30.91 83.83 30.62 82.15 C32.64 80.13 36.62 80.91 39.37 80.9 C72.79 80.95 103.88 92.03 131.62 110.15 C107.06 59.49 49.25 26.83 -1.43 8.92 C-3.38 8.15 -3.38 8.15 -4.38 7.15 C-4.57 4.71 -4.57 4.71 -4.38 2.15 C-2.38 0.15 -2.38 0.15 0 0 Z " fill="#95C45E" transform="translate(98.37890625,248.84765625)"/>
<path d="M0 0 C0.99 2.98 1.02 4.61 0.88 7.69 C0.82 13.98 2.4 18.48 5.75 23.75 C9.75 27.75 13.05 29.83 18.62 30.31 C20.08 30.23 21.54 30.13 23 30 C24.12 29.92 25.24 29.84 26.4 29.76 C29.6 29.53 32.8 29.27 36 29 C34.43 32.53 32.87 35.38 30 38 C26.65 38.7 23.35 38.64 19.94 38.62 C2.04 39.03 -12.65 44.6 -25.43 57.28 C-31.71 63.79 -31.71 63.79 -35 72 C-34.01 71.67 -33.02 71.34 -32 71 C-30.56 70.82 -29.12 70.68 -27.68 70.57 C-26.82 70.5 -25.97 70.43 -25.08 70.35 C-24.17 70.28 -23.26 70.2 -22.31 70.12 C-14.53 69.44 -7.05 68.35 0.6 66.79 C7.29 65.51 14.08 64.84 20.84 64.09 C21.83 63.98 22.81 63.86 23.82 63.75 C24.7 63.65 25.58 63.55 26.48 63.45 C29.23 62.96 31.49 62.24 34 61 C35.89 58.18 35.89 58.18 37.31 54.88 C37.82 53.78 38.34 52.68 38.86 51.55 C39.24 50.71 39.61 49.87 40 49 C42 51 42 51 42.21 54.63 C41.98 62.74 40.99 71.63 35.46 77.86 C32.56 80.19 32.56 80.19 29.75 82.11 C25.05 85.34 21.72 89.01 18.88 93.94 C18.4 94.75 17.92 95.56 17.43 96.4 C15.92 99.03 15.92 99.03 14.72 102.09 C10.8 108.73 0.4 111.82 -6.81 113.94 C-11.81 115.02 -16.72 115.3 -21.81 115.38 C-22.87 115.4 -22.87 115.4 -23.95 115.42 C-28.93 115.37 -32.43 114.11 -37 112 C-39.93 111.28 -39.93 111.28 -42.75 110.88 C-45.65 110.41 -48.2 109.93 -51 109 C-51.27 109.74 -51.54 110.47 -51.81 111.23 C-56.67 122.55 -67.39 130.48 -78.44 135.17 C-81.86 136.28 -84.45 136.39 -88 136 C-87.36 135.24 -86.72 134.47 -86.06 133.69 C-81.96 128.34 -82.46 122.48 -83 116 C-85.25 105.92 -89.79 96.19 -96.94 88.69 C-99.98 85.4 -99.98 85.4 -100.12 81.69 C-99.02 79.05 -98.05 77.91 -96 76 C-95.75 76.69 -95.49 77.37 -95.23 78.08 C-94.89 78.98 -94.54 79.88 -94.19 80.81 C-93.85 81.71 -93.51 82.6 -93.17 83.52 C-92.01 85.97 -90.92 87.16 -89 89 C-88.7 89.68 -88.39 90.35 -88.08 91.05 C-86.27 94.32 -83.4 94.92 -80.02 96.18 C-74.76 97.61 -69.43 97.83 -64 98 C-64 96.35 -64 94.7 -64 93 C-63.01 93 -62.02 93 -61 93 C-61.56 91.58 -62.12 90.17 -62.69 88.75 C-63.05 87.84 -63.41 86.92 -63.79 85.98 C-64.6 84 -65.42 82.02 -66.27 80.05 C-73 64.46 -73 64.46 -73 57 C-69.41 57.58 -67.75 58.92 -65.19 61.44 C-61.11 65.1 -57.68 67.02 -52.03 66.99 C-47.28 66.58 -43.19 65.34 -39 63 C-36.7 59.93 -36.7 59.93 -35 57 C-34.34 57 -33.68 57 -33 57 C-32.73 56.13 -32.46 55.27 -32.19 54.38 C-31.03 51.08 -29.62 48.09 -28 45 C-27.01 45 -26.02 45 -25 45 C-23.61 43.37 -23.61 43.37 -22.38 41.19 C-19.26 36.23 -15.65 31.84 -11.86 27.38 C-7.89 22.29 -8.74 16.65 -9.5 10.56 C-9.67 9.39 -9.83 8.21 -10 7 C-6.7 4.69 -3.4 2.38 0 0 Z " fill="#7D4898" transform="translate(328,163)"/>
<path d="M0 0 C4.47 0.51 6.58 2.17 10 5 C11.98 6.04 13.97 7.06 16 8 C15.72 9.87 15.72 9.87 15 12 C13.45 13.14 13.45 13.14 11.47 14.04 C10.41 14.54 10.41 14.54 9.32 15.05 C8.58 15.38 7.83 15.72 7.06 16.06 C5.59 16.73 4.12 17.41 2.66 18.1 C1.68 18.54 1.68 18.54 0.68 18.99 C-1.33 20.04 -1.33 20.04 -3 23 C-3.14 25.68 -3.14 25.68 -2.81 28.56 C-2.74 29.53 -2.66 30.5 -2.58 31.5 C-2.22 34.35 -2.22 34.35 1 36 C1 36.66 1 37.32 1 38 C1.66 38 2.32 38 3 38 C5.12 39.88 5.12 39.88 7 42 C7 42.66 7 43.32 7 44 C15.25 45.37 21.4 44.73 29.29 41.91 C32 41 32 41 35 41 C34.02 47.62 33.11 53.32 28 58 C22.98 59.66 17.65 59.85 12.42 60.35 C0.37 61.57 -9.83 67.24 -19 75 C-19.72 75.6 -20.43 76.21 -21.17 76.83 C-30 84.96 -35.54 95.64 -39 107 C-41.58 104.47 -43.99 101.89 -46.31 99.12 C-52.99 91.5 -61.26 83.61 -71.79 82.66 C-74.27 82.68 -76.75 82.75 -79.23 82.89 C-80.6 82.94 -80.6 82.94 -82 83 C-84.26 80.74 -83.19 75.41 -83.19 72.38 C-83.2 71.48 -83.21 70.59 -83.22 69.68 C-83.24 64.38 -82.74 60.01 -81 55 C-80.67 55 -80.34 55 -80 55 C-80 56.65 -80 58.3 -80 60 C-77.69 60 -75.38 60 -73 60 C-73 56.7 -73 53.4 -73 50 C-68.12 51.75 -68.12 51.75 -67 54 C-65.51 54.5 -65.51 54.5 -64 55 C-62.31 56.44 -62.31 56.44 -61 58 C-61 58.66 -61 59.32 -61 60 C-60.38 60.25 -59.76 60.5 -59.12 60.75 C-56.63 62.22 -56.17 63.41 -55 66 C-53.19 65.52 -51.37 65.04 -49.56 64.56 C-48.55 64.3 -47.54 64.03 -46.5 63.75 C-44.08 63.24 -44.08 63.24 -43 62 C-41.33 61.96 -39.67 61.96 -38 62 C-37.94 61.01 -37.88 60.02 -37.81 59 C-37 53.57 -34.39 49.07 -30.24 45.48 C-28.92 44.51 -27.59 43.56 -26.25 42.63 C-22.7 40.06 -19.56 37.07 -16.34 34.1 C-14.41 32.37 -12.46 30.84 -10.38 29.31 C-7.75 27.23 -7.75 27.23 -7.63 24.28 C-8.08 20.25 -9.47 17.74 -11.5 14.25 C-15 8.17 -15 8.17 -15 6 C-13.21 5.97 -11.42 5.95 -9.62 5.94 C-8.63 5.93 -7.63 5.91 -6.6 5.9 C-4 6 -4 6 -2 7 C-1.34 4.69 -0.68 2.38 0 0 Z " fill="#83509B" transform="translate(350,49)"/>
<path d="M0 0 C0.99 0.5 0.99 0.5 2 1 C2.16 1.8 2.33 2.61 2.5 3.44 C3.73 6.18 3.73 6.18 6.21 6.74 C8.8 7.24 11.39 7.63 14 8 C14.92 8.25 14.92 8.25 15.86 8.5 C18.15 9.04 20.33 9.26 22.68 9.43 C23.58 9.5 24.48 9.57 25.41 9.65 C26.37 9.72 27.33 9.8 28.31 9.88 C36.3 10.54 43.94 11.61 51.77 13.34 C56.16 14.24 60.54 14.7 65 15 C65.33 14.34 65.66 13.68 66 13 C70.38 19.74 73.52 26.36 76 34 C76.33 34.99 76.66 35.98 77 37 C77.66 44.38 77.78 50.12 73 56 C70.26 58.04 67.53 60 64 60 C63.67 60.99 63.34 61.98 63 63 C63 62.01 63 61.02 63 60 C62.14 60.18 61.27 60.36 60.38 60.54 C47.57 62.29 33.5 56.6 23.4 49 C12.63 40.04 2.06 28.41 0 14 C-0.21 9.32 -0.18 4.68 0 0 Z " fill="#7F499C" transform="translate(169,242)"/>
<path d="M0 0 C40.18 2.71 40.18 2.71 48.62 11.15 C48.62 11.81 48.62 12.47 48.62 13.15 C49.36 13.05 50.11 12.95 50.87 12.84 C53.62 13.15 53.62 13.15 55.62 15.4 C56.28 16.31 56.94 17.22 57.62 18.15 C59.26 19.51 60.93 20.85 62.62 22.15 C64.43 23.78 64.43 23.78 65.62 25.15 C65.62 25.81 65.62 26.47 65.62 27.15 C66.35 27.26 67.09 27.36 67.84 27.46 C70.9 28.22 72.55 29.27 75.06 31.15 C78.53 33.68 82.03 36.08 85.66 38.35 C98.04 46.12 109.06 55.07 119.62 65.15 C120.49 65.96 121.35 66.78 122.24 67.61 C128.8 73.93 134.29 80.78 139.62 88.15 C140.33 89.07 141.04 89.99 141.77 90.94 C144.18 95.13 144.97 99.11 145.81 103.84 C145.98 104.72 146.14 105.61 146.32 106.52 C147.45 112.7 148.33 118.87 148.62 125.15 C146.97 123.74 145.31 122.32 143.67 120.89 C142.39 119.8 141.07 118.74 139.73 117.72 C133.8 113.07 130.22 107.31 126.18 101.06 C119.1 90.14 110.61 80.52 101.62 71.15 C100.45 69.91 100.45 69.91 99.25 68.65 C71.76 40.38 35.3 21.9 -1.43 8.92 C-3.38 8.15 -3.38 8.15 -4.38 7.15 C-4.57 4.71 -4.57 4.71 -4.38 2.15 C-2.38 0.15 -2.38 0.15 0 0 Z " fill="#A0CA5D" transform="translate(98.37890625,248.84765625)"/>
<path d="M0 0 C7.48 0.88 14.21 1.68 21 5 C22.66 5.36 24.33 5.7 26 6 C25.83 7.24 25.67 8.48 25.5 9.76 C21.72 38.13 18.64 66.42 17 95 C16.93 96.09 16.87 97.19 16.8 98.31 C16.25 107.85 15.97 117.36 16.05 126.91 C16.24 152.47 14.47 174.89 6.25 199.16 C4.18 205.35 2.61 211.68 1 218 C0.67 218 0.34 218 0 218 C-0.29 204.53 0.5 191.15 1.3 177.71 C1.54 173.63 1.77 169.56 2 165.48 C2.58 155.36 3.16 145.24 3.76 135.12 C4.21 127.25 4.67 119.38 5.12 111.51 C5.31 108.13 5.5 104.76 5.7 101.38 C6.47 88.52 7.13 75.68 7.16 62.79 C7.16 61.84 7.16 60.89 7.17 59.92 C7.13 53.89 6.71 47.98 6 42 C5.34 42 4.68 42 4 42 C3.73 41.13 3.46 40.27 3.19 39.38 C2.07 35.98 2.07 35.98 0.44 32.88 C-4.43 23.13 -2.38 10.24 0 0 Z " fill="#8FBC43" transform="translate(277,272)"/>
<path d="M0 0 C2.26 3.39 2.88 6.03 3.8 9.99 C3.97 10.69 4.13 11.38 4.3 12.09 C4.83 14.35 5.36 16.61 5.88 18.88 C6.05 19.65 6.23 20.42 6.41 21.21 C7.47 25.8 8.51 30.39 9.55 34.98 C9.95 36.76 10.35 38.54 10.76 40.32 C10.98 41.26 11.19 42.21 11.41 43.18 C11.59 43.96 11.77 44.73 11.95 45.53 C13.42 53 14.21 60.14 14.11 67.76 C14.1 68.67 14.09 69.57 14.09 70.5 C14.07 73.34 14.03 76.17 14 79 C13.98 80.76 13.97 82.53 13.96 84.29 C13.91 89.7 13.85 95.11 13.78 100.52 C13.76 102.48 13.74 104.45 13.71 106.42 C13.66 111.51 13.6 116.6 13.54 121.7 C13.48 126.93 13.42 132.16 13.36 137.39 C13.24 147.59 13.12 157.8 13 168 C11.42 164.96 10.56 162.31 9.88 158.94 C5.72 141.82 -2.87 125.07 -13.75 111.28 C-15.37 108.33 -15.31 106.33 -15 103 C-14.05 100.65 -13.05 98.31 -12 96 C-11.31 93.22 -11.31 93.22 -11 91 C-10.34 91 -9.68 91 -9 91 C-8.88 89.74 -8.75 88.48 -8.62 87.19 C-8.3 83.9 -7.93 82.9 -6 80 C-1 85 4 90 9 95 C8.84 93.9 8.69 92.8 8.53 91.66 C7.9 86.6 7.71 81.54 7.54 76.45 C7.46 74.43 7.38 72.41 7.3 70.4 C7.18 67.24 7.06 64.09 6.95 60.94 C6.84 57.88 6.72 54.82 6.6 51.76 C6.55 50.33 6.55 50.33 6.51 48.88 C6.47 48.01 6.43 47.13 6.39 46.23 C6.37 45.46 6.34 44.69 6.31 43.9 C6.15 41.76 6.15 41.76 4 40 C-0.02 39.68 -3.4 40.03 -7.25 41.12 C-8.49 41.41 -9.72 41.7 -11 42 C-14.64 39.57 -14.69 37.95 -15.54 33.82 C-15.69 33.01 -15.84 32.21 -16 31.38 C-16.92 26.66 -17.85 22.15 -19.61 17.66 C-21.14 13.64 -21.26 11.22 -21 7 C-16.32 4.22 -11.96 3.32 -6.59 2.53 C-4.08 2.02 -2.22 1.25 0 0 Z " fill="#5B9641" transform="translate(254,295)"/>
<path d="M0 0 C1.11 0.02 1.11 0.02 2.24 0.04 C10.28 0.29 18.46 1.15 24.81 6.44 C24.65 7.14 24.48 7.84 24.31 8.56 C23.69 11.43 23.69 11.43 24.06 14.31 C23.72 18.57 21.78 21.4 18.81 24.44 C18.15 24.44 17.49 24.44 16.81 24.44 C16.81 25.43 16.81 26.42 16.81 27.44 C11.63 30.5 5.47 30.15 -0.32 29.02 C-1.96 28.55 -3.58 28 -5.19 27.44 C-6.52 27.09 -7.85 26.76 -9.19 26.44 C-8.3 27.82 -7.4 29.19 -6.5 30.56 C-6 31.33 -5.5 32.09 -4.99 32.88 C-4.39 33.73 -3.8 34.57 -3.19 35.44 C-2.47 36.51 -1.76 37.59 -1.02 38.7 C2.3 41.91 3.66 42.11 8.09 42.17 C8.87 42.15 9.64 42.14 10.44 42.12 C12.06 42.16 13.68 42.2 15.3 42.25 C16.47 42.28 16.47 42.28 17.66 42.32 C31.44 43.07 44.05 51.23 53.81 60.44 C56.81 63.9 56.81 63.9 56.81 67.44 C49.48 67.72 42.75 66.9 35.56 65.5 C27.97 64.09 20.61 63.06 12.9 62.64 C9.64 62.43 6.43 62.08 3.19 61.62 C2.25 61.49 1.31 61.36 0.34 61.23 C-2.78 60.25 -4.17 58.98 -6.19 56.44 C-6.29 55.41 -6.39 54.38 -6.5 53.31 C-7.22 49.28 -8.02 48.04 -10.44 44.88 C-17.3 35.55 -20.81 24.04 -20.19 12.44 C-19.19 9.57 -19.19 9.57 -18.19 7.44 C-17.53 7.44 -16.87 7.44 -16.19 7.44 C-15.86 6.45 -15.53 5.46 -15.19 4.44 C-10.03 0.79 -6.24 -0.2 0 0 Z " fill="#A170B9" transform="translate(177.1875,189.5625)"/>
<path d="M0 0 C34.63 0.05 74.41 11.51 99.91 35.89 C100.35 36.34 100.8 36.79 101.25 37.25 C101.05 37.93 100.84 38.6 100.63 39.3 C100.36 40.19 100.09 41.08 99.81 42 C99.55 42.88 99.28 43.76 99 44.67 C98.22 47.16 98.22 47.16 97.9 49.39 C96.96 52.07 95.72 52.9 93.25 54.25 C88.36 54.59 83.86 53.43 79.91 50.52 C78.3 49.01 76.71 47.48 75.13 45.93 C52.43 24.77 21.76 13.83 -7.75 6.25 C-8.13 4.59 -8.46 2.93 -8.75 1.25 C-6.73 -0.77 -2.75 0.01 0 0 Z " fill="#CCED97" transform="translate(137.75,329.75)"/>
<path d="M0 0 C2.67 2.11 3.99 3.74 5.07 6.98 C5.59 15.85 5.62 23.69 2.07 31.98 C-2.79 31.37 -6.67 29.25 -10.93 26.98 C-10.93 26.32 -10.93 25.66 -10.93 24.98 C-11.59 24.98 -12.25 24.98 -12.93 24.98 C-12.93 24.32 -12.93 23.66 -12.93 22.98 C-14.32 23.97 -14.32 23.97 -15.74 24.98 C-18.93 26.98 -18.93 26.98 -21.93 26.98 C-24.3 25.3 -24.3 25.3 -26.93 23.11 C-29.56 20.92 -32.09 18.88 -34.93 16.98 C-34.64 17.68 -34.35 18.38 -34.05 19.11 C-31.74 25.02 -30.35 29.63 -30.93 35.98 C-32.44 39 -34.6 39.09 -37.76 40.14 C-38.95 40.54 -40.14 40.94 -41.37 41.36 C-42 41.56 -42.62 41.77 -43.27 41.98 C-45.16 42.6 -47.05 43.24 -48.94 43.88 C-50.14 44.28 -51.34 44.67 -52.57 45.08 C-53.67 45.45 -54.77 45.81 -55.9 46.19 C-58.74 46.93 -61.02 47.14 -63.93 46.98 C-63.67 44.99 -63.41 43.01 -63.15 41.02 C-62.88 38.83 -62.88 38.83 -62.93 35.98 C-63.34 36.56 -63.75 37.14 -64.17 37.73 C-64.98 38.84 -64.98 38.84 -65.8 39.98 C-66.34 40.72 -66.87 41.47 -67.42 42.23 C-68.17 43.1 -68.17 43.1 -68.93 43.98 C-69.59 43.98 -70.25 43.98 -70.93 43.98 C-71.26 44.97 -71.59 45.96 -71.93 46.98 C-73.74 42.16 -71.55 38.68 -69.57 34.21 C-64.76 24.73 -58.47 16.97 -48.93 11.98 C-44.27 10.85 -40.19 11.85 -35.93 13.98 C-35.31 13.31 -35.31 13.31 -34.68 12.62 C-26.85 4.43 -11.89 -6.28 0 0 Z " fill="#B689CE" transform="translate(412.9296875,227.01953125)"/>
<path d="M0 0 C6.83 0.89 10.16 1.9 15 7 C18.68 7.89 18.68 7.89 22 8 C21.4 14.82 19.07 20.88 16.81 27.31 C11.87 41.66 7.7 56.2 3.62 70.81 C3.32 71.88 3.02 72.95 2.72 74.06 C-0.49 85.5 -3.58 96.91 -5.97 108.55 C-7.49 113.65 -9.55 117.03 -14 120 C-16.36 120.23 -16.36 120.23 -19.11 120.2 C-20.09 120.19 -21.07 120.18 -22.08 120.18 C-23.62 120.15 -23.62 120.15 -25.19 120.12 C-26.22 120.12 -27.26 120.11 -28.33 120.1 C-30.88 120.07 -33.44 120.04 -36 120 C-36 118.02 -36 116.04 -36 114 C-33.69 115.32 -31.38 116.64 -29 118 C-29.1 117.4 -29.19 116.79 -29.29 116.17 C-29.4 115.37 -29.51 114.57 -29.62 113.75 C-29.74 112.96 -29.86 112.17 -29.98 111.36 C-30 108.68 -29.37 107.27 -28 105 C-27.34 105 -26.68 105 -26 105 C-25.67 103.68 -25.34 102.36 -25 101 C-24.34 101 -23.68 101 -23 101 C-22.89 100.36 -22.78 99.72 -22.67 99.06 C-21.68 93.68 -20.7 88.79 -18 84 C-16.76 83.6 -16.76 83.6 -15.5 83.19 C-12.83 82.26 -12.83 82.26 -12.12 79.88 C-11.62 78.1 -11.14 76.32 -10.68 74.53 C-9.85 71.45 -8.45 68.83 -7 66 C-6.67 64.82 -6.34 63.65 -6 62.44 C-5 59 -5 59 -3.5 56.56 C-1.49 53.14 -0.89 49.87 0 46 C0.5 45.01 0.5 45.01 1 44 C1.66 44 2.32 44 3 44 C3.14 43.22 3.29 42.43 3.44 41.62 C4 39 4 39 5 37 C5.07 35.63 5.08 34.25 5.06 32.88 C5.04 31.6 5.02 30.32 5 29 C4.01 28.67 3.02 28.34 2 28 C1.31 25.94 1.31 25.94 1 24 C0.34 24 -0.32 24 -1 24 C-1.5 22.51 -1.5 22.51 -2 21 C-2.66 20.67 -3.32 20.34 -4 20 C-4.49 12.46 -2.91 6.94 0 0 Z " fill="#7FAF2B" transform="translate(306,392)"/>
<path d="M0 0 C0.33 0.66 0.66 1.32 1 2 C1.66 2 2.32 2 3 2 C3.68 3.92 4.37 5.84 5.05 7.76 C5.92 10.07 5.92 10.07 7.54 12.06 C9.59 16.19 9.36 19.74 9.25 24.29 C9.23 25.21 9.22 26.12 9.21 27.07 C9.05 37.14 8.65 47.21 8.2 57.28 C8.06 60.42 7.93 63.56 7.8 66.7 C7.71 68.73 7.62 70.75 7.54 72.77 C7.5 73.7 7.46 74.63 7.42 75.58 C7.38 76.45 7.34 77.33 7.3 78.22 C7.26 78.98 7.23 79.74 7.2 80.52 C7.04 82.43 6.8 84.34 6.52 86.25 C5.94 90.44 5.67 94.58 5.46 98.8 C5.41 99.66 5.37 100.51 5.32 101.39 C5.22 103.23 5.13 105.07 5.03 106.92 C4.88 109.85 4.72 112.78 4.56 115.72 C4.11 124.05 3.67 132.39 3.23 140.73 C2.96 145.84 2.69 150.95 2.41 156.06 C2.31 157.99 2.21 159.92 2.11 161.85 C1.52 173.32 0.62 184.63 -1 196 C-1.66 196 -2.32 196 -3 196 C-5.34 170.15 -5.16 144.19 -5.13 118.26 C-5.12 113.46 -5.13 108.67 -5.13 103.88 C-5.16 76.96 -5.18 50.06 -2.5 23.25 C-2.37 21.86 -2.24 20.46 -2.11 19.07 C-1.5 12.7 -0.85 6.34 0 0 Z " fill="#B5DB78" transform="translate(272,305)"/>
<path d="M0 0 C0.91 -0.02 1.82 -0.05 2.76 -0.07 C10.2 -0.11 13.79 1.96 19.19 7.12 C19.89 7.87 20.59 8.61 21.31 9.38 C20.24 13.17 18.79 16.63 17 20.12 C16.61 20.88 16.22 21.64 15.82 22.42 C13.28 25.71 10.03 26.25 6.04 26.94 C4.83 27.08 3.61 27.23 2.36 27.38 C1.37 27.5 1.37 27.5 0.36 27.62 C-1.74 27.88 -3.84 28.13 -5.94 28.38 C-16.23 29.49 -16.23 29.49 -26.39 31.43 C-31.93 32.77 -37.57 33.08 -43.25 33.5 C-44.35 33.59 -45.46 33.67 -46.6 33.76 C-49.29 33.97 -51.99 34.18 -54.69 34.38 C-54.3 29.05 -52.37 26.21 -48.75 22.5 C-48.25 21.98 -47.76 21.46 -47.25 20.92 C-33.89 7.15 -19.22 0.03 0 0 Z " fill="#B98BD1" transform="translate(347.6875,200.625)"/>
<path d="M0 0 C3 1 3 1 4.46 3.51 C4.95 4.56 5.44 5.61 5.94 6.69 C9.55 15.11 9.55 15.11 16.42 20.64 C18.28 21.22 18.28 21.22 20.19 21.81 C26.97 23.97 26.97 23.97 28 25 C32.22 26.02 36.46 26.89 40.72 27.73 C41.38 27.85 42.03 27.98 42.7 28.11 C44.62 28.49 46.53 28.85 48.45 29.22 C51.74 29.94 54.81 30.92 58 32 C60.33 32.34 62.66 32.68 65 33 C65.33 33.33 65.66 33.66 66 34 C67.35 34.23 68.7 34.41 70.06 34.56 C71.36 34.71 72.66 34.85 74 35 C73.36 38.73 72.25 42.02 70.94 45.56 C67.48 56.53 68.13 68.74 70 80 C69.05 79.65 68.09 79.3 67.11 78.94 C65.85 78.48 64.58 78.02 63.31 77.56 C62.69 77.33 62.06 77.1 61.42 76.87 C56.42 75.06 52.15 73.95 46.86 74 C34.63 74.08 34.63 74.08 30.15 71.11 C28.13 68.82 26.53 66.63 25 64 C24.44 63.12 23.88 62.24 23.31 61.33 C22 59 22 59 22 57 C22.7 57.14 23.4 57.29 24.12 57.44 C25.55 57.72 25.55 57.72 27 58 C28.3 58.28 28.3 58.28 29.62 58.56 C35.69 59.35 42.09 59.75 48 58 C48 57.01 48 56.02 48 55 C49.29 53.62 50.63 52.29 52 51 C54.19 47.71 54.23 46.74 54.12 42.94 C54.11 42.06 54.09 41.18 54.07 40.28 C54.05 39.53 54.02 38.77 54 38 C54 37.34 54 36.68 54 36 C52.61 35.52 51.21 35.04 49.81 34.56 C49.04 34.3 48.26 34.03 47.46 33.75 C42.19 32.14 37.12 31.76 31.62 31.69 C30.9 31.66 30.17 31.63 29.41 31.6 C23.82 31.53 20.6 32.8 16 36 C15.67 36.66 15.34 37.32 15 38 C9.5 35.81 7.57 31.06 5 26 C2.03 18.97 -0.16 12.37 -0.06 4.69 C-0.05 3.8 -0.04 2.92 -0.04 2.01 C-0.02 1.35 -0.01 0.68 0 0 Z " fill="#85529F" transform="translate(146,159)"/>
<path d="M0 0 C3.79 5.68 4.05 12.33 3 19 C1.16 22.01 -1.22 23.88 -4 26 C-5.4 27.22 -6.8 28.45 -8.19 29.69 C-8.86 30.26 -9.53 30.84 -10.22 31.43 C-12.13 33.06 -12.13 33.06 -14.19 35.31 C-16 37 -16 37 -18.56 37.69 C-21.14 38.74 -21.14 38.74 -21.81 40.98 C-22.27 42.59 -22.73 44.2 -23.19 45.82 C-24.35 48.95 -26.26 50.19 -29 52 C-29.62 52.7 -30.24 53.4 -30.88 54.12 C-35.75 58.43 -41.85 58.3 -48 58 C-50.44 57.62 -50.44 57.62 -52 57 C-52.33 56.34 -52.66 55.68 -53 55 C-53.66 54.67 -54.32 54.34 -55 54 C-57 53 -57 53 -58 51 C-59.49 50.5 -59.49 50.5 -61 50 C-61.99 49.01 -62.98 48.02 -64 47 C-63.67 50.63 -63.34 54.26 -63 58 C-64.98 58.19 -66.96 58.38 -68.94 58.56 C-70.59 58.72 -70.59 58.72 -72.28 58.88 C-73.63 58.94 -73.63 58.94 -75 59 C-77.26 56.74 -76.19 51.41 -76.19 48.38 C-76.2 47.48 -76.21 46.59 -76.22 45.68 C-76.24 40.38 -75.74 36.01 -74 31 C-73.67 31 -73.34 31 -73 31 C-73 32.65 -73 34.3 -73 36 C-70.69 36 -68.38 36 -66 36 C-66 32.7 -66 29.4 -66 26 C-61.12 27.75 -61.12 27.75 -60 30 C-59.01 30.33 -58.02 30.66 -57 31 C-55.31 32.44 -55.31 32.44 -54 34 C-54 34.66 -54 35.32 -54 36 C-53.38 36.25 -52.76 36.5 -52.12 36.75 C-49.63 38.22 -49.17 39.41 -48 42 C-46.19 41.52 -44.37 41.04 -42.56 40.56 C-41.55 40.3 -40.54 40.03 -39.5 39.75 C-37.08 39.24 -37.08 39.24 -36 38 C-34.33 37.96 -32.67 37.96 -31 38 C-30.94 37.01 -30.88 36.02 -30.81 35 C-30 29.57 -27.39 25.07 -23.24 21.48 C-21.92 20.51 -20.59 19.56 -19.25 18.63 C-15.71 16.06 -12.56 13.07 -9.34 10.11 C-7.42 8.38 -5.47 6.74 -3.44 5.12 C-0.77 3.16 -0.77 3.16 0 0 Z " fill="#9866B1" transform="translate(343,73)"/>
<path d="M0 0 C7 6.83 11.54 16.79 12.56 26.5 C6.53 30.56 6.53 30.56 1.62 30.25 C0.61 30 -0.4 29.75 -1.44 29.5 C-1.44 28.84 -1.44 28.18 -1.44 27.5 C-5.07 27.17 -8.7 26.84 -12.44 26.5 C-12.71 27.55 -12.99 28.6 -13.28 29.68 C-13.64 31.05 -14.01 32.43 -14.38 33.81 C-14.56 34.5 -14.74 35.19 -14.93 35.9 C-15.7 38.8 -16.49 41.66 -17.44 44.5 C-26.2 43.81 -35.4 41.95 -42.44 36.5 C-45.11 36.25 -45.11 36.25 -47.44 36.5 C-42.88 20.16 -32.17 8.97 -18.56 -0.5 C-12.38 -2.48 -5.98 -2.61 0 0 Z " fill="#BD91D4" transform="translate(368.4375,1.5)"/>
<path d="M0 0 C2.59 2.33 4.1 4.72 5.69 7.81 C6.12 8.64 6.56 9.48 7.01 10.33 C8.21 13.58 8.56 15.57 8 19 C6.2 21.11 4.61 22.7 2.5 24.44 C1.68 25.15 1.68 25.15 0.84 25.87 C-0.25 26.82 -1.36 27.76 -2.47 28.7 C-4.5 30.42 -6.46 32.21 -8.44 34 C-10.54 35.85 -12.18 37.09 -14.69 38.38 C-19.05 41.44 -21.47 46.67 -22.64 51.79 C-22.76 52.52 -22.88 53.25 -23 54 C-25.27 54.67 -27.54 55.34 -29.81 56 C-31.08 56.37 -32.34 56.74 -33.64 57.12 C-37 58 -37 58 -40 58 C-41.38 56.37 -42.71 54.7 -44 53 C-44.66 52.67 -45.32 52.34 -46 52 C-46 51.34 -46 50.68 -46 50 C-47.49 49.5 -47.49 49.5 -49 49 C-49 48.34 -49 47.68 -49 47 C-49.96 46.81 -49.96 46.81 -50.94 46.62 C-51.62 46.42 -52.3 46.21 -53 46 C-53.33 45.34 -53.66 44.68 -54 44 C-54.99 43.67 -55.98 43.34 -57 43 C-57.33 45.97 -57.66 48.94 -58 52 C-60.31 52 -62.62 52 -65 52 C-66.51 46.21 -65.46 42.56 -63.3 37.04 C-62 35 -62 35 -59.98 34.34 C-59.33 34.23 -58.67 34.11 -58 34 C-57.34 33.34 -56.68 32.68 -56 32 C-55.29 32.72 -54.59 33.43 -53.86 34.17 C-46.15 42.47 -46.15 42.47 -36.44 47.64 C-34.06 47.69 -34.06 47.69 -31 47 C-29.42 41.52 -29.42 41.52 -28 36 C-30.48 34.02 -30.48 34.02 -33 32 C-31.55 28.69 -29.73 26.43 -27.19 23.88 C-26.52 23.19 -25.85 22.51 -25.17 21.8 C-23 20 -23 20 -20.68 19.19 C-16.61 17.38 -13.99 14.3 -10.94 11.12 C-10.33 10.5 -9.71 9.87 -9.08 9.23 C-7.91 8.03 -6.73 6.82 -5.56 5.61 C-3.73 3.72 -1.87 1.86 0 0 Z " fill="#AF80C8" transform="translate(335,57)"/>
<path d="M0 0 C0.33 0 0.66 0 1 0 C1.66 5.94 2.32 11.88 3 18 C9.69 17.39 9.69 17.39 15.19 15.12 C16.18 14.59 16.18 14.59 17.19 14.05 C18.7 13.17 20.19 12.28 21.69 11.38 C25.16 9.31 27.93 8 32 8 C32.66 5.36 33.32 2.72 34 0 C36.5 1.11 38.15 2.15 40.16 4.06 C43.76 6.51 46.63 6.46 50.81 6.25 C51.51 6.23 52.2 6.21 52.91 6.2 C54.61 6.15 56.3 6.08 58 6 C56.71 9.42 55.63 11.48 53 14 C52.67 14.99 52.34 15.98 52 17 C55.3 16.67 58.6 16.34 62 16 C55.31 25.95 46.3 32.04 34.46 34.54 C28.82 35.3 23.34 35.17 18 33 C17 31.67 16 30.33 15 29 C12.96 28.43 12.96 28.43 10.62 28.06 C5.13 27.02 2.81 24.59 -0.38 20.04 C-4.65 13.51 -4.65 13.51 -5 10 C-4 7.42 -4 7.42 -2.56 4.75 C-2.09 3.86 -1.62 2.97 -1.13 2.05 C-0.76 1.37 -0.38 0.7 0 0 Z " fill="#774390" transform="translate(301,366)"/>
<path d="M0 0 C1.74 1.38 1.74 1.38 3.19 2.75 C3.99 3.45 4.8 4.15 5.62 4.88 C9.67 9.73 8.68 16.82 8.19 22.75 C7.13 27.19 5.76 31.46 4.19 35.75 C0.56 36.41 -3.07 37.07 -6.81 37.75 C-6.37 32.25 -4.98 29.22 -1.81 24.75 C-2.4 24.8 -2.99 24.85 -3.6 24.91 C-6.31 25.13 -9.03 25.31 -11.75 25.5 C-13.14 25.62 -13.14 25.62 -14.56 25.75 C-21.15 26.16 -26.16 25.31 -31.81 21.75 C-35.01 18.32 -35.74 16.48 -36.19 11.81 C-35.99 7.9 -35.05 4.45 -33.81 0.75 C-24.02 -2.42 -9.44 -5.72 0 0 Z " fill="#A97BC1" transform="translate(373.8125,156.25)"/>
<path d="M0 0 C0.84 -0.01 1.67 -0.01 2.53 -0.02 C9.31 0.12 14.14 1.45 19.38 6 C21.5 8.5 21.5 8.5 22.5 11.5 C21.84 12.16 21.18 12.82 20.5 13.5 C19.18 13.5 17.86 13.5 16.5 13.5 C16.5 14.16 16.5 14.82 16.5 15.5 C11.77 17.22 7.13 18.21 2.19 19.06 C-2.54 19.5 -2.54 19.5 -6.5 21.5 C-8.94 22.02 -11.36 22.5 -13.81 22.94 C-14.54 23.07 -15.26 23.21 -16.01 23.35 C-20.25 24.13 -24.48 24.78 -28.75 25.38 C-34.14 26.23 -38.77 28.09 -43.71 30.38 C-46.65 31.56 -49.37 32.09 -52.5 32.5 C-51.59 24.3 -43.51 17.85 -37.35 12.86 C-25.89 4.41 -14.18 0.08 0 0 Z " fill="#B88BD1" transform="translate(371.5,107.5)"/>
<path d="M0 0 C6.86 3.92 9.36 10.81 12 18 C12.63 20.76 12.89 23.16 13 26 C12.42 26.12 11.85 26.24 11.25 26.37 C8.22 27.22 5.66 28.67 2.9 30.16 C1 31 1 31 -2 31 C-2.19 31.6 -2.37 32.2 -2.56 32.81 C-5.47 37.24 -11.04 38.08 -15.94 39.19 C-17.28 39.46 -18.62 39.72 -20 40 C-20 36.37 -20 32.74 -20 29 C-20.66 29 -21.32 29 -22 29 C-22.27 29.7 -22.54 30.4 -22.81 31.12 C-24.07 34.16 -25.5 37.07 -27 40 C-27.66 40 -28.32 40 -29 40 C-29.46 27.59 -26.25 16.43 -18.5 6.5 C-12.75 0.75 -8.08 -1.92 0 0 Z " fill="#B486CB" transform="translate(323,327)"/>
<path d="M0 0 C7.48 0.88 14.21 1.68 21 5 C23.48 5.5 23.48 5.5 26 6 C23.69 24.15 21.38 42.3 19 61 C17.51 60.5 17.51 60.5 16 60 C15 57.81 15 57.81 14 55 C13.48 54.05 12.97 53.1 12.44 52.12 C10.87 48.71 10.37 45.73 10 42 C9.34 42 8.68 42 8 42 C7.75 41.2 7.5 40.39 7.25 39.56 C6.84 38.72 6.43 37.87 6 37 C5.36 36.86 4.72 36.71 4.06 36.56 C2 36 2 36 0.31 33.19 C-3.96 22.81 -2.49 10.71 0 0 Z " fill="#4A8A4B" transform="translate(277,272)"/>
<path d="M0 0 C1.07 0.64 2.14 1.28 3.25 1.94 C5.35 3.16 6.79 3.96 9.19 4.38 C12.22 5.42 13.28 8.4 15 11 C16.63 12.05 18.3 13.06 20 14 C19.76 14.5 19.52 15 19.27 15.52 C18.55 17.03 17.83 18.54 17.11 20.05 C16.28 21.78 15.45 23.51 14.61 25.23 C12.73 29.16 10.92 33.04 9.52 37.17 C6.42 46.04 6.42 46.04 1.74 49.19 C-1.47 50.69 -4.62 51.95 -8 53 C-10.12 49 -11.52 44.82 -13 40.56 C-13.96 37.82 -13.96 37.82 -16 35 C-15.66 30.66 -13.76 27.08 -11.88 23.2 C-11.57 22.57 -11.26 21.93 -10.94 21.28 C-10.3 19.95 -9.65 18.62 -9 17.29 C-8 15.25 -7.01 13.2 -6.02 11.15 C-1.16 1.16 -1.16 1.16 0 0 Z " fill="#7EB76A" transform="translate(345,300)"/>
<path d="M0 0 C7.41 3.86 15.5 9.14 20 16.38 C20 17.37 20 18.35 20 19.38 C12.67 19.65 5.94 18.84 -1.25 17.44 C-8.84 16.03 -16.2 14.99 -23.91 14.57 C-27.18 14.36 -30.38 14.02 -33.62 13.56 C-34.57 13.43 -35.51 13.3 -36.48 13.17 C-39.58 12.19 -40.94 10.86 -43 8.38 C-44.25 5.56 -44.25 5.56 -44 2.38 C-32.78 -10.79 -13.94 -6.43 0 0 Z " fill="#B98BD1" transform="translate(214,237.625)"/>
<path d="M0 0 C0.99 0.5 0.99 0.5 2 1 C2.16 1.8 2.33 2.61 2.5 3.44 C3.73 6.18 3.73 6.18 6.21 6.74 C8.8 7.24 11.39 7.63 14 8 C14.92 8.25 14.92 8.25 15.86 8.5 C18.15 9.04 20.33 9.26 22.68 9.43 C23.58 9.5 24.48 9.57 25.41 9.65 C26.37 9.72 27.33 9.8 28.31 9.88 C36.3 10.54 43.94 11.61 51.77 13.34 C56.16 14.24 60.54 14.7 65 15 C65.33 14.34 65.66 13.68 66 13 C72.7 23.37 72.7 23.37 73 29 C68.26 30.35 64.05 29.75 59.25 29.12 C58.47 29.03 57.69 28.94 56.89 28.85 C51.14 28.14 51.14 28.14 50 27 C47.39 26.69 44.79 26.43 42.17 26.2 C40.55 26.05 38.93 25.89 37.31 25.73 C34.75 25.49 32.19 25.25 29.63 25.03 C27.16 24.82 24.7 24.58 22.23 24.33 C21.47 24.27 20.7 24.21 19.92 24.15 C16.04 23.74 14.33 23.37 11.66 20.44 C11.11 19.63 10.56 18.83 10 18 C7.33 17.58 7.33 17.58 5 18 C5 18.66 5 19.32 5 20 C4.01 20 3.02 20 2 20 C0.19 15.38 -0.22 11.57 -0.12 6.62 C-0.11 5.38 -0.09 4.13 -0.07 2.85 C-0.05 1.91 -0.02 0.97 0 0 Z " fill="#9562B1" transform="translate(169,242)"/>
<path d="M0 0 C0.76 0.02 1.52 0.05 2.3 0.07 C4.25 0.31 4.25 0.31 6.25 1.31 C7.18 3.64 7.99 5.93 8.75 8.31 C9.08 9.34 9.08 9.34 9.42 10.39 C12.24 19.27 13.57 26.94 13.25 36.31 C5.13 35.14 -2.86 33.48 -10.88 31.75 C-11.91 31.53 -12.94 31.31 -14 31.08 C-14.97 30.86 -15.94 30.65 -16.95 30.43 C-17.82 30.24 -18.7 30.05 -19.6 29.85 C-21.75 29.31 -21.75 29.31 -23.75 28.31 C-25.04 24.77 -24.58 22.24 -23.16 18.73 C-21.28 15.51 -18.94 12.81 -16.44 10.06 C-15.98 9.56 -15.51 9.05 -15.04 8.53 C-10.78 4.03 -6.52 -0.33 0 0 Z " fill="#C094D8" transform="translate(220.75,85.6875)"/>
<path d="M0 0 C5.92 0.59 11.02 2.27 16.56 4.38 C17.39 4.68 18.21 4.98 19.06 5.3 C31.81 10.07 31.81 10.07 36.31 16.62 C46.39 30.55 58.02 39.18 75 43 C76.6 43.14 78.21 43.24 79.81 43.31 C84.35 43.72 87.05 45.52 90.28 48.67 C93.67 53.27 94.77 58.5 96 64 C96.23 65 96.23 65 96.46 66.02 C99.28 78.43 99.28 78.43 98 81 C94.79 77.88 91.82 74.68 88.96 71.24 C74.36 53.76 58.21 40.41 39 28.28 C35.05 25.75 31.19 23.1 27.32 20.46 C24.99 18.86 24.99 18.86 22 18 C22 17.34 22 16.68 22 16 C21.01 15.67 20.02 15.34 19 15 C19 14.34 19 13.68 19 13 C18.01 12.67 17.02 12.34 16 12 C16 11.34 16 10.68 16 10 C15.01 9.67 14.02 9.34 13 9 C13 8.34 13 7.68 13 7 C12.01 6.67 11.02 6.34 10 6 C10 5.34 10 4.68 10 4 C8.35 4 6.7 4 5 4 C5 3.34 5 2.68 5 2 C3.35 1.67 1.7 1.34 0 1 C0 0.67 0 0.34 0 0 Z " fill="#B8DC7D" transform="translate(142,258)"/>
<path d="M0 0 C9.37 5.72 16.67 13.13 22.16 22.68 C22.16 23.67 22.16 24.66 22.16 25.68 C14.87 28 7.65 30.15 0.16 31.68 C-0.17 29.37 -0.5 27.06 -0.84 24.68 C-2.49 24.35 -4.14 24.02 -5.84 23.68 C-6.5 21.7 -7.16 19.72 -7.84 17.68 C-10.81 18.34 -13.78 19 -16.84 19.68 C-17.17 18.69 -17.5 17.7 -17.84 16.68 C-18.83 16.68 -19.82 16.68 -20.84 16.68 C-21.17 16.02 -21.5 15.36 -21.84 14.68 C-22.83 14.35 -23.82 14.02 -24.84 13.68 C-23.2 7.93 -21.19 3.35 -16.22 -0.2 C-10.44 -2.13 -5.64 -2.63 0 0 Z " fill="#CEA4E4" transform="translate(186.84375,51.32421875)"/>
<path d="M0 0 C2 2 2 2 2.25 5.59 C2.14 10.08 1.18 14.19 0 18.5 C-0.29 19.59 -0.29 19.59 -0.58 20.7 C-1.04 22.47 -1.52 24.24 -2 26 C-3.49 25.5 -3.49 25.5 -5 25 C-4.01 24.5 -4.01 24.5 -3 24 C-3 23.34 -3 22.68 -3 22 C-3.66 22 -4.32 22 -5 22 C-5 21.34 -5 20.68 -5 20 C-6.49 19.5 -6.49 19.5 -8 19 C-8.76 19.76 -9.53 20.53 -10.31 21.31 C-11.64 22.64 -11.64 22.64 -13 24 C-13.38 24.53 -13.77 25.05 -14.16 25.6 C-17.11 27.84 -20.49 27.81 -24.06 28.12 C-24.86 28.21 -25.66 28.29 -26.49 28.37 C-32.68 28.96 -38.87 29.26 -45.08 29.53 C-51.83 29.88 -58.44 30.85 -65.1 31.98 C-70.15 32.82 -74.88 33.13 -80 33 C-79.46 28.44 -78.21 25.03 -76 21 C-75.67 21.66 -75.34 22.32 -75 23 C-74.01 22.67 -73.02 22.34 -72 22 C-70.56 21.82 -69.12 21.68 -67.68 21.57 C-66.82 21.5 -65.97 21.43 -65.08 21.35 C-64.17 21.28 -63.26 21.2 -62.31 21.12 C-54.53 20.44 -47.05 19.35 -39.4 17.79 C-32.71 16.51 -25.92 15.84 -19.16 15.09 C-18.17 14.98 -17.19 14.86 -16.18 14.75 C-15.3 14.65 -14.42 14.55 -13.52 14.45 C-10.77 13.96 -8.51 13.24 -6 12 C-4.11 9.18 -4.11 9.18 -2.69 5.88 C-2.18 4.78 -1.66 3.68 -1.14 2.55 C-0.76 1.71 -0.39 0.87 0 0 Z " fill="#9461B0" transform="translate(368,212)"/>
<path d="M0 0 C0.33 5.61 0.66 11.22 1 17 C7.21 16.11 12.68 14.84 18.62 13 C19.55 12.75 20.48 12.49 21.44 12.23 C26.7 10.58 29.41 9.16 32.15 4.25 C32.8 2.85 33.43 1.44 34 0 C34.66 0.33 35.32 0.66 36 1 C36.12 1.8 36.25 2.61 36.38 3.44 C36.72 6.12 36.72 6.12 38.88 7.25 C42.75 8.62 46.08 9.25 50.19 9.56 C51.27 9.65 52.36 9.73 53.48 9.82 C54.31 9.88 55.14 9.94 56 10 C52.63 18.15 42.98 23.09 35.36 26.66 C31.47 28.21 27.59 29.5 23.56 30.62 C22.89 30.83 22.21 31.03 21.52 31.24 C19.57 31.73 19.57 31.73 16 32 C12.99 30.17 11.39 29.08 10.19 25.75 C10.13 25.17 10.06 24.6 10 24 C9.13 23.94 8.27 23.88 7.38 23.81 C3.29 22.83 0.66 21.19 -2 18 C-4.41 13.61 -5.8 9.01 -5 4 C-1.74 0 -1.74 0 0 0 Z " fill="#7D4997" transform="translate(346,281)"/>
<path d="M0 0 C4.46 0.52 8.6 1.71 12.88 3.06 C14.03 3.42 15.18 3.79 16.37 4.16 C17.24 4.44 18.1 4.71 19 5 C19 5.66 19 6.32 19 7 C19.76 6.94 20.53 6.88 21.31 6.81 C24 7 24 7 25.36 8.39 C27.38 10.38 29.22 11.03 31.88 12 C34.72 13.08 37.1 14.06 39.69 15.69 C42.06 17.23 42.06 17.23 45.44 17.44 C49.55 18.09 51.78 19.41 55 22 C55 22.66 55 23.32 55 24 C56.65 24 58.3 24 60 24 C60 24.66 60 25.32 60 26 C61.16 26.14 62.31 26.29 63.5 26.44 C64.23 26.53 64.96 26.62 65.71 26.72 C67.17 26.9 68.64 27.07 70.1 27.22 C74.31 27.67 78.04 28.52 82 30 C82 30.66 82 31.32 82 32 C82.76 31.94 83.53 31.88 84.31 31.81 C87.59 32.04 87.77 32.77 90 35 C91.96 35.95 91.96 35.95 94.06 36.62 C96.13 37.34 98.04 38.02 100 39 C100.33 37.02 100.66 35.04 101 33 C105 33 105 33 107.25 35 C107.83 35.66 108.41 36.32 109 37 C108.8 37.68 108.59 38.35 108.38 39.05 C108.11 39.94 107.84 40.83 107.56 41.75 C107.3 42.63 107.03 43.51 106.75 44.42 C105.97 46.91 105.97 46.91 105.65 49.14 C104.71 51.82 103.47 52.65 101 54 C96.11 54.34 91.61 53.18 87.66 50.27 C86.05 48.76 84.46 47.23 82.88 45.68 C60.18 24.52 29.51 13.58 0 6 C-0.38 4.34 -0.71 2.68 -1 1 C-0.67 0.67 -0.34 0.34 0 0 Z " fill="#B8DD7D" transform="translate(130,330)"/>
<path d="M0 0 C0.66 0.33 1.32 0.66 2 1 C1.67 3.31 1.34 5.62 1 8 C1.66 8.1 2.31 8.2 2.99 8.3 C12.43 9.78 21.7 11.87 31 14 C29.85 16.47 28.95 18.05 27 20 C27.47 20.74 27.95 21.49 28.44 22.25 C29.8 24.64 30.42 26.37 31 29 C39.48 31.12 39.48 31.12 48 30 C50.39 28.35 52.59 26.59 54.79 24.69 C57 23 57 23 62 21 C62.5 27.44 62.5 27.44 63 34 C63.33 34 63.66 34 64 34 C64 38.62 64 43.24 64 48 C62.35 48 60.7 48 59 48 C59.16 46.89 59.33 45.77 59.5 44.62 C60.12 39.74 60.09 34.91 60 30 C59.57 30.66 59.13 31.32 58.69 32 C57.85 32.99 57.85 32.99 57 34 C56.01 34 55.02 34 54 34 C53.67 34.99 53.34 35.98 53 37 C50.26 40.1 48.54 41.68 44.47 42.53 C37.1 42.95 32.55 40.71 27 36 C24.31 33.31 23.94 30.62 23 27 C22.34 27 21.68 27 21 27 C21 26.34 21 25.68 21 25 C20.37 24.86 19.74 24.73 19.09 24.59 C16.24 23.97 13.4 23.33 10.56 22.69 C9.57 22.47 8.58 22.26 7.55 22.04 C6.61 21.83 5.66 21.61 4.69 21.39 C3.82 21.19 2.94 21 2.04 20.8 C1.37 20.54 0.69 20.27 0 20 C-1.17 16.5 -1.13 13.69 -1.12 10 C-1.13 8.14 -1.13 8.14 -1.13 6.25 C-1 3 -1 3 0 0 Z " fill="#9A69B4" transform="translate(191,121)"/>
<path d="M0 0 C4.21 4.51 4.21 9.93 4.7 15.82 C2.72 16.48 0.74 17.14 -1.3 17.82 C-2.3 16.82 -2.3 16.82 -2.36 13.76 C-2.34 12.79 -2.32 11.82 -2.3 10.82 C-3.25 11.4 -4.2 11.98 -5.18 12.57 C-9.05 14.8 -13.09 16.41 -17.26 17.99 C-19.26 18.65 -19.26 18.65 -20.3 19.82 C-25.09 19.96 -28.43 19.5 -32.24 16.51 C-35.86 11.78 -36.96 8.94 -36.3 2.82 C-31.5 -3.06 -23.8 -5.03 -16.49 -5.99 C-9.12 -6.48 -5.39 -5.07 0 0 Z " fill="#C69CDD" transform="translate(392.30078125,63.1796875)"/>
<path d="M0 0 C6.35 2.53 10.68 8.92 15 14 C15.85 14.98 16.7 15.97 17.58 16.98 C26.71 28.67 28.33 43.5 29 58 C27.35 56.59 25.69 55.17 24.05 53.74 C22.76 52.65 21.45 51.59 20.11 50.57 C12.91 44.91 5.91 35.73 3 27 C3.66 27 4.32 27 5 27 C4.67 25.02 4.34 23.04 4 21 C3.34 21 2.68 21 2 21 C1.29 15.93 1 11.13 1 6 C0.67 5.67 0.34 5.34 0 5 C-0.04 3.33 -0.04 1.67 0 0 Z " fill="#4C8F4C" transform="translate(218,316)"/>
<path d="M0 0 C10.5 1.82 20.68 13.73 28 21 C29.23 23.46 29 25.28 29 28 C29.33 28.33 29.66 28.66 30 29 C30.07 31.53 30.09 34.03 30.06 36.56 C30.06 37.27 30.05 37.98 30.05 38.72 C30.04 40.48 30.02 42.24 30 44 C30.66 44 31.32 44 32 44 C32.5 46.97 32.5 46.97 33 50 C30.26 49.64 29.17 49.18 27.25 47.14 C26.35 45.92 26.35 45.92 25.44 44.69 C22.32 40.64 19.08 36.76 15.62 33 C15.16 32.49 14.7 31.99 14.23 31.46 C11.94 28.98 9.64 26.68 7.11 24.44 C2.1 19.97 -0.55 17.24 -1.12 10.38 C-1.13 8.58 -1.1 6.79 -1 5 C-0.34 5 0.32 5 1 5 C0.67 3.35 0.34 1.7 0 0 Z " fill="#71AC57" transform="translate(190,293)"/>
<path d="M0 0 C2.15 1.2 4.2 2.45 6.22 3.88 C6.22 8.76 5.33 9.28 2.22 12.88 C-1.9 18.07 -5.52 23.5 -9.04 29.11 C-11.54 33.09 -14.16 36.98 -16.78 40.88 C-20.18 35.78 -19.9 30.51 -19.88 24.51 C-19.88 23.83 -19.88 23.15 -19.87 22.45 C-19.87 20.3 -19.86 18.15 -19.84 16 C-19.84 14.54 -19.83 13.07 -19.83 11.61 C-19.82 8.03 -19.8 4.45 -19.78 0.88 C-13.35 -1.82 -6.63 -2.67 0 0 Z " fill="#CFA5E5" transform="translate(284.78125,132.12109375)"/>
<path d="M0 0 C0.33 0 0.66 0 1 0 C1.33 15.84 1.66 31.68 2 48 C3.32 47.01 4.64 46.02 6 45 C6.51 46.73 7.01 48.46 7.5 50.19 C7.78 51.15 8.06 52.11 8.34 53.11 C8.97 55.85 9.12 58.2 9 61 C7.11 60.79 7.11 60.79 5 60 C3.95 57.93 3.95 57.93 3.25 55.44 C3.01 54.61 2.77 53.78 2.52 52.93 C2.26 51.98 2.26 51.98 2 51 C-1.25 52.72 -1.25 52.72 -2 56 C-2.45 56.41 -2.91 56.82 -3.38 57.25 C-5.78 59.84 -6.7 62.72 -8 66 C-8.33 66 -8.66 66 -9 66 C-9.14 58.22 -9.29 50.44 -9.43 42.67 C-9.48 40.02 -9.52 37.37 -9.57 34.72 C-9.64 30.92 -9.71 27.12 -9.78 23.32 C-9.8 22.14 -9.82 20.95 -9.85 19.73 C-9.87 18.62 -9.89 17.52 -9.91 16.39 C-9.93 15.42 -9.94 14.45 -9.96 13.45 C-10.05 8.05 -10.05 8.05 -8.31 6 C-6 4 -3.66 2.51 -1 1 C-0.67 0.67 -0.34 0.34 0 0 Z " fill="#A372BD" transform="translate(237,177)"/>
<path d="M0 0 C0.31 0.64 0.62 1.28 0.94 1.94 C1.83 3.94 1.83 3.94 3 5 C3.11 8.11 3.16 11.18 3.14 14.29 C3.14 15.27 3.14 16.25 3.14 17.25 C3.05 29.98 2.36 42.67 1.69 55.38 C1.55 58.01 1.42 60.64 1.28 63.27 C-0.18 91.52 -1.71 119.8 -4 148 C-4.33 148 -4.66 148 -5 148 C-5.02 137.66 -5.04 127.32 -5.05 116.99 C-5.06 112.18 -5.06 107.38 -5.08 102.57 C-5.21 46.45 -5.21 46.45 -2.7 21.01 C-2.49 18.91 -2.3 16.81 -2.11 14.71 C-1.07 3.74 -1.07 3.74 0 0 Z " fill="#C9EA93" transform="translate(272,309)"/>
<path d="M0 0 C2.23 1.73 4.38 3.5 6.49 5.37 C4.94 14.06 -5.03 21.09 -11.51 26.37 C-13.16 27.4 -14.82 28.4 -16.51 29.37 C-17.58 30.09 -18.65 30.81 -19.76 31.55 C-22.51 33.37 -22.51 33.37 -23.51 33.37 C-23.77 26.64 -22.95 21.12 -21.07 14.68 C-20.61 13.05 -20.15 11.42 -19.7 9.79 C-19.49 9.04 -19.28 8.28 -19.06 7.5 C-18.36 4.81 -17.89 2.11 -17.51 -0.63 C-11.24 -2.85 -5.82 -3.79 0 0 Z " fill="#D0A7E6" transform="translate(321.5078125,41.6328125)"/>
<path d="M0 0 C0.66 0.33 1.32 0.66 2 1 C2.33 2.33 2.67 3.67 3 5 C3.66 5.33 4.32 5.66 5 6 C4.96 6.62 4.93 7.24 4.89 7.88 C4.44 15.92 4 23.96 3.56 32 C3.49 33.3 3.42 34.61 3.35 35.95 C2.59 49.91 1.91 63.85 1.79 77.84 C1.78 78.91 1.77 79.98 1.75 81.09 C1.71 86.1 1.69 91.1 1.73 96.11 C1.72 108.97 -0.69 119.9 -5 132 C-5.33 132 -5.66 132 -6 132 C-6.28 120.18 -5.84 108.42 -5.16 96.62 C-5.12 95.88 -5.07 95.14 -5.03 94.37 C-4.72 88.91 -4.39 83.46 -4.06 78 C-3.69 71.83 -3.33 65.67 -2.97 59.5 C-2.91 58.36 -2.91 58.36 -2.84 57.2 C-2.07 43.84 -1.62 30.47 -1.34 17.09 C-1.32 16.39 -1.31 15.69 -1.29 14.96 C-1.25 13.08 -1.21 11.19 -1.17 9.31 C-1.01 6.13 -0.59 3.12 0 0 Z " fill="#7DAD26" transform="translate(291,327)"/>
<path d="M0 0 C1.65 0.33 3.3 0.66 5 1 C5 1.66 5 2.32 5 3 C5.99 3 6.98 3 8 3 C8.33 3.66 8.66 4.32 9 5 C11.97 4.34 14.94 3.68 18 3 C18.41 4.13 18.82 5.27 19.25 6.44 C20.57 10.1 20.57 10.1 23.19 10.94 C23.79 10.96 24.38 10.98 25 11 C25.33 13.31 25.66 15.62 26 18 C27.07 17.66 28.15 17.32 29.25 16.98 C30.69 16.53 32.13 16.08 33.56 15.62 C34.27 15.4 34.97 15.18 35.7 14.95 C40.11 13.57 44.54 12.25 49 11 C49.66 13.31 50.32 15.62 51 18 C49.27 18.48 47.54 18.96 45.81 19.44 C44.85 19.7 43.89 19.97 42.89 20.25 C40.27 20.93 37.66 21.5 35 22 C35 22.66 35 23.32 35 24 C31.7 24.66 28.4 25.32 25 26 C23.68 22.7 22.36 19.4 21 16 C15.7 16.19 15.7 16.19 11.16 18.47 C8.26 20.53 5.75 20.73 2.25 21.19 C1.08 21.35 -0.09 21.5 -1.3 21.67 C-2.19 21.78 -3.08 21.89 -4 22 C-3.72 19.64 -3.42 17.29 -3.12 14.94 C-3.05 14.28 -2.97 13.62 -2.89 12.95 C-2.31 8.47 -1.34 4.32 0 0 Z " fill="#B385CB" transform="translate(161,65)"/>
<path d="M0 0 C0.33 0 0.66 0 1 0 C2.03 7.55 2.12 14.95 2.06 22.56 C2.06 23.76 2.05 24.96 2.05 26.2 C2.04 29.13 2.02 32.07 2 35 C2.66 35.04 3.31 35.07 3.99 35.11 C9.27 35.5 13.13 36.04 17.62 39.06 C18.46 39.61 19.3 40.16 20.16 40.72 C20.77 41.14 21.38 41.57 22 42 C21.7 42.6 21.39 43.21 21.08 43.83 C20.27 45.45 19.5 47.1 18.75 48.75 C17 51 17 51 13.94 51.5 C12.97 51.34 12 51.17 11 51 C10.34 50.01 9.68 49.02 9 48 C8.1 47.81 8.1 47.81 7.19 47.62 C3.92 46.69 2.31 44.42 0 42 C-0.99 41.34 -1.98 40.68 -3 40 C-3 39.34 -3 38.68 -3 38 C-8.6 40.4 -10.44 44.8 -13 50 C-13.33 50 -13.66 50 -14 50 C-14 43.73 -14 37.46 -14 31 C-14.66 30.67 -15.32 30.34 -16 30 C-11.9 27.01 -9.02 26.7 -4 27 C-4.05 26.39 -4.09 25.78 -4.14 25.16 C-4.51 16.29 -2.37 8.45 0 0 Z " fill="#CAA0E0" transform="translate(259,142)"/>
<path d="M0 0 C1.64 1.1 1.64 1.1 3.89 3.1 C0.88 6.27 -2.33 8.83 -5.86 11.41 C-9.53 14.12 -13.08 16.86 -16.48 19.91 C-24.66 27.18 -24.66 27.18 -28.42 26.97 C-29.31 26.68 -30.2 26.4 -31.11 26.1 C-32.71 25.73 -34.32 25.38 -35.92 25.04 C-37.32 24.72 -38.71 24.41 -40.11 24.1 C-32.96 10.63 -17 -7.27 0 0 Z " fill="#D4ACE9" transform="translate(367.109375,0.90234375)"/>
<path d="M0 0 C2.81 4.21 3.54 8.61 4.69 13.5 C5.04 14.94 5.04 14.94 5.41 16.42 C5.63 17.34 5.85 18.27 6.07 19.22 C6.38 20.49 6.38 20.49 6.69 21.78 C7 24 7 24 6 27 C0.33 27.13 0.33 27.13 -1.94 26.25 C-4.97 25.88 -6.7 27.43 -9.12 29.09 C-11.51 30.25 -13.38 30.15 -16 30 C-16.85 27.48 -17.68 24.96 -18.5 22.44 C-18.74 21.73 -18.98 21.03 -19.22 20.3 C-20.71 15.68 -21.26 11.86 -21 7 C-16.32 4.22 -11.96 3.32 -6.59 2.53 C-4.08 2.02 -2.22 1.25 0 0 Z " fill="#508E56" transform="translate(254,295)"/>
<path d="M0 0 C1.13 0.01 1.13 0.01 2.29 0.03 C5.51 0.1 8.18 0.29 11.25 1.31 C11.39 3.37 11.48 5.44 11.56 7.5 C11.62 8.65 11.68 9.8 11.74 10.98 C11.25 14.31 11.25 14.31 9.33 17.28 C4.9 20.2 1.71 19.48 -3.38 18.69 C-4.66 18.52 -4.66 18.52 -5.98 18.36 C-9.39 17.9 -12.48 17.4 -15.75 16.31 C-15.46 16.87 -15.17 17.42 -14.88 17.99 C-14.32 19.08 -14.32 19.08 -13.75 20.19 C-13.38 20.91 -13.01 21.63 -12.62 22.37 C-11.75 24.31 -11.75 24.31 -11.75 26.31 C-14.06 26.31 -16.37 26.31 -18.75 26.31 C-20.93 19.64 -21.95 13.9 -18.75 7.31 C-18.09 7.31 -17.43 7.31 -16.75 7.31 C-16.42 6.32 -16.09 5.33 -15.75 4.31 C-10.4 0.47 -6.48 -0.25 0 0 Z " fill="#B689CE" transform="translate(177.75,189.6875)"/>
<path d="M0 0 C4.24 3.82 6.71 7.63 9.19 12.75 C9.54 13.46 9.88 14.17 10.24 14.9 C13.73 22.22 15.35 28.86 15 37 C15.72 37.06 16.44 37.12 17.19 37.19 C20.92 38.27 22.53 40.05 25 43 C25.81 45.31 25.81 45.31 26 47 C24.68 47.99 23.36 48.98 22 50 C21.67 47.69 21.34 45.38 21 43 C13.77 47.55 13.77 47.55 8.12 53.81 C6 56 6 56 2.38 56.06 C-1 55 -1 55 -2.44 52.94 C-2.72 51.98 -2.72 51.98 -3 51 C-3.66 51 -4.32 51 -5 51 C-7.12 46.38 -7.12 46.38 -6 43 C-3.38 41.39 -3.38 41.39 -0.12 39.81 C0.94 39.28 2.01 38.75 3.12 38.21 C6 37 6 37 9 37 C8.38 33.91 7.76 30.83 7.12 27.75 C6.95 26.88 6.78 26 6.6 25.11 C6.42 24.26 6.25 23.42 6.07 22.55 C5.83 21.38 5.83 21.38 5.59 20.2 C4.98 17.94 4.07 16.08 3 14 C2.66 11.82 2.66 11.82 2.5 9.56 C2.18 6.05 1.55 3.21 0 0 Z " fill="#C59ADB" transform="translate(231,90)"/>
<path d="M0 0 C3.27 2.06 4.51 3.2 5.88 6.81 C6.73 13.86 4.54 19.34 1.88 25.81 C-0.44 25.48 -2.75 25.15 -5.12 24.81 C-4.51 21.85 -3.87 20.43 -2.12 17.81 C-3.15 17.79 -4.17 17.76 -5.23 17.73 C-6.59 17.68 -7.95 17.62 -9.31 17.56 C-10.32 17.54 -10.32 17.54 -11.35 17.52 C-16.18 17.28 -18.72 16.23 -22.12 12.81 C-23.6 9.86 -23.19 7.07 -23.12 3.81 C-22.46 3.48 -21.81 3.15 -21.12 2.81 C-20.8 1.82 -20.46 0.83 -20.12 -0.19 C-14.04 -2.21 -6.05 -2.3 0 0 Z " fill="#BA8ED1" transform="translate(410.125,267.1875)"/>
<path d="M0 0 C1.07 0.64 2.14 1.28 3.25 1.94 C5.35 3.16 6.79 3.96 9.19 4.38 C12.22 5.42 13.28 8.4 15 11 C16.63 12.05 18.3 13.06 20 14 C10.29 34.62 10.29 34.62 6 43 C5.34 42.67 4.68 42.34 4 42 C3.48 38.99 3.06 36.02 2.69 33 C1.79 26.43 0.69 21.4 -2.98 15.77 C-4.73 12.73 -4.57 10.39 -4 7 C-2.85 4.48 -1.52 2.33 0 0 Z " fill="#57965A" transform="translate(345,300)"/>
<path d="M0 0 C1.32 0.66 2.64 1.32 4 2 C2.22 13.12 -4.74 21.81 -12 30 C-11.34 30.99 -10.68 31.98 -10 33 C-14.97 35.43 -18.35 36.35 -24 36 C-23.36 35.24 -22.72 34.47 -22.06 33.69 C-17.97 28.35 -18.53 22.47 -19 16 C-19.63 13.27 -20.41 10.7 -21.34 8.06 C-22 6 -22 6 -22 3 C-21.28 3.19 -20.56 3.37 -19.81 3.56 C-16.87 4.02 -14.86 3.74 -12 3 C-12 3.66 -12 4.32 -12 5 C-10.92 4.26 -10.92 4.26 -9.81 3.5 C-6.8 1.89 -5.32 1.91 -2 2 C-1.34 1.34 -0.68 0.68 0 0 Z " fill="#6B3881" transform="translate(264,263)"/>
<path d="M0 0 C0.91 -0.02 1.82 -0.05 2.76 -0.07 C8.4 -0.1 11.98 0.38 16.31 4.38 C16.96 6.51 16.96 6.51 17.31 8.38 C8.81 10.52 0.19 11.44 -8.5 12.44 C-10.75 12.7 -13 12.96 -15.26 13.22 C-17.29 13.46 -19.32 13.69 -21.35 13.93 C-23.89 14.27 -26.22 14.72 -28.69 15.38 C-30.44 15.44 -32.19 15.46 -33.94 15.44 C-34.83 15.43 -35.72 15.42 -36.64 15.41 C-37.32 15.4 -37.99 15.39 -38.69 15.38 C-36.18 8.95 -28.98 6.5 -23.12 3.62 C-15.46 0.84 -8.13 0.01 0 0 Z " fill="#CCA2E3" transform="translate(347.6875,200.625)"/>
<path d="M0 0 C3.26 1.15 5.5 2.64 8 5 C8.8 5.7 9.61 6.4 10.44 7.12 C13.44 10.73 13.11 14.19 13.06 18.69 C13.05 19.87 13.04 21.05 13.04 22.26 C13.02 23.17 13.01 24.07 13 25 C9.12 22.38 9.12 22.38 8 19 C8.94 16.31 8.94 16.31 10 14 C9.01 14.29 8.02 14.58 7 14.88 C2.64 15.94 -1.75 16.71 -6.19 17.38 C-6.88 17.5 -7.57 17.62 -8.28 17.74 C-11.82 18.24 -13.77 18.12 -16.97 16.46 C-19.64 13.22 -19.52 11.39 -19.31 7.25 C-19.27 6.08 -19.22 4.91 -19.18 3.7 C-19.12 2.81 -19.06 1.92 -19 1 C-13.89 -1.55 -5.63 -0.66 0 0 Z " fill="#C499DA" transform="translate(369,154)"/>
<path d="M0 0 C1 3 1 3 0.07 5.38 C-0.38 6.29 -0.84 7.19 -1.31 8.12 C-4.88 15.65 -7.26 23.59 -6 32 C-4.92 34.84 -3.55 37.4 -2 40 C-1.67 40.66 -1.34 41.32 -1 42 C-3.31 42 -5.62 42 -8 42 C-8.37 41.13 -8.37 41.13 -8.74 40.25 C-10.21 37.63 -11.91 36.08 -14.12 34.06 C-20.99 27.36 -26.25 19.23 -29 10 C-24.25 11.88 -24.25 11.88 -22 13 C-22 12.34 -22 11.68 -22 11 C-17.55 11.99 -17.55 11.99 -13 13 C-13.33 11.68 -13.66 10.36 -14 9 C-13.41 8.77 -12.82 8.54 -12.21 8.3 C-7.09 6.19 -3.62 4.2 0 0 Z " fill="#6A3680" transform="translate(291,232)"/>
<path d="M0 0 C2.4 1.7 3.87 3.43 4.65 6.27 C4.95 8.47 4.95 8.47 5.07 12.16 C3.75 12.16 2.43 12.16 1.07 12.16 C1.07 12.82 1.07 13.48 1.07 14.16 C-2.26 14.16 -5.6 14.16 -8.93 14.16 C-9.71 15.15 -10.5 16.14 -11.3 17.16 C-13.93 20.16 -13.93 20.16 -16.8 20.91 C-23.11 19.39 -27.2 14.23 -30.93 9.16 C-22.46 2.7 -11.1 -4.85 0 0 Z " fill="#CEA3E4" transform="translate(412.9296875,226.84375)"/>
<path d="M0 0 C7.48 0.62 14.78 1.5 22.13 3.05 C22.13 3.71 22.13 4.37 22.13 5.05 C23.12 5.38 24.11 5.71 25.13 6.05 C25.13 6.71 25.13 7.37 25.13 8.05 C26.12 8.38 27.11 8.71 28.13 9.05 C28.5 10.37 28.84 11.7 29.13 13.05 C29.79 13.38 30.45 13.71 31.13 14.05 C31.13 14.71 31.13 15.37 31.13 16.05 C32.12 16.05 33.11 16.05 34.13 16.05 C34.62 17.04 34.62 17.04 35.13 18.05 C36.77 18.77 38.44 19.44 40.13 20.05 C40.13 20.71 40.13 21.37 40.13 22.05 C40.93 22.29 41.74 22.54 42.57 22.8 C43.41 23.21 44.26 23.62 45.13 24.05 C45.75 26.11 45.75 26.11 46.13 28.05 C47.12 28.38 48.11 28.71 49.13 29.05 C48.14 29.54 48.14 29.54 47.13 30.05 C44.8 29.11 44.8 29.11 41.87 27.62 C40.78 27.07 39.69 26.53 38.57 25.97 C37.39 25.38 36.22 24.78 35 24.17 C22.96 18.19 10.72 13.21 -1.98 8.78 C-3.87 8.05 -3.87 8.05 -4.87 7.05 C-5.06 4.61 -5.06 4.61 -4.87 2.05 C-2.87 0.05 -2.87 0.05 0 0 Z " fill="#8EBB3F" transform="translate(98.87109375,248.953125)"/>
<path d="M0 0 C-2.34 5.65 -2.34 5.65 -5.18 7.13 C-8.45 8.14 -11.56 8.6 -14.95 9 C-15.94 9.12 -15.94 9.12 -16.95 9.25 C-19.05 9.5 -21.15 9.75 -23.25 10 C-33.54 11.12 -33.54 11.12 -43.7 13.05 C-49.25 14.4 -54.88 14.71 -60.56 15.12 C-61.67 15.21 -62.77 15.3 -63.91 15.39 C-66.61 15.6 -69.3 15.8 -72 16 C-71.35 10.64 -70.1 8.58 -66 5 C-66 5.66 -66 6.32 -66 7 C-55.44 6.67 -44.88 6.34 -34 6 C-34 5.34 -34 4.68 -34 4 C-33.23 3.91 -32.46 3.83 -31.66 3.74 C-28.17 3.35 -24.68 2.96 -21.19 2.56 C-19.37 2.36 -19.37 2.36 -17.51 2.15 C-15.76 1.96 -15.76 1.96 -13.98 1.75 C-12.37 1.57 -12.37 1.57 -10.73 1.39 C-0.83 -0.02 -0.83 -0.02 0 0 Z " fill="#A777C2" transform="translate(365,219)"/>
<path d="M0 0 C3.46 1.95 5.99 4.85 8.44 7.94 C10.06 9.34 10.06 9.34 12.81 9.75 C17.66 8.8 19.08 6.01 22 2.12 C26.45 3.12 26.45 3.12 31 4.12 C31 3.47 31 2.81 31 2.12 C32.32 2.12 33.64 2.12 35 2.12 C35.37 9.44 34.82 15.34 32 22.12 C27.14 21.52 23.26 19.4 19 17.12 C19 16.47 19 15.81 19 15.12 C18.34 15.12 17.68 15.12 17 15.12 C17 14.47 17 13.81 17 13.12 C16.07 13.78 15.14 14.44 14.19 15.12 C11 17.12 11 17.12 8 17.12 C5.66 15.41 5.66 15.41 3.06 13.19 C-0.05 10.53 -2.08 9.1 -6 8.12 C-6.33 7.13 -6.66 6.15 -7 5.12 C-2.65 0.17 -2.65 0.17 0 0 Z " fill="#AE80C6" transform="translate(383,236.875)"/>
<path d="M0 0 C1.21 0.34 2.43 0.67 3.68 1.02 C6.69 2.19 6.69 2.19 8.69 5.19 C8.96 8.65 8.65 11.85 7.69 15.19 C4.32 17.93 2.61 18.27 -1.69 17.88 C-2.55 17.65 -3.42 17.42 -4.31 17.19 C-4.31 16.53 -4.31 15.87 -4.31 15.19 C-7.28 14.53 -10.25 13.87 -13.31 13.19 C-13.31 12.53 -13.31 11.87 -13.31 11.19 C-14.26 10.88 -15.21 10.57 -16.19 10.25 C-19.31 9.19 -19.31 9.19 -21.31 8.19 C-21.31 9.84 -21.31 11.49 -21.31 13.19 C-22.3 12.86 -23.29 12.53 -24.31 12.19 C-24.06 7.94 -23.74 5.71 -21 2.38 C-14.19 -3.17 -8.3 -2.38 0 0 Z " fill="#CAA0E0" transform="translate(170.3125,103.8125)"/>
<path d="M0 0 C4.88 3.94 9.06 8.12 13 13 C12.01 13.5 12.01 13.5 11 14 C10.53 16.13 10.53 16.13 10.38 18.56 C10.3 19.39 10.23 20.22 10.15 21.07 C10.1 21.7 10.05 22.34 10 23 C9.01 23 8.02 23 7 23 C6.52 24.42 6.04 25.83 5.56 27.25 C5.3 28.04 5.03 28.83 4.75 29.64 C4.08 31.75 3.51 33.85 3 36 C0.31 36.44 0.31 36.44 -3 36 C-6.16 33.18 -7.81 30.16 -8.5 26 C-7.89 22.34 -6.53 19.37 -5 16 C-4.31 13.22 -4.31 13.22 -4 11 C-3.34 11 -2.68 11 -2 11 C-1.78 9.11 -1.78 9.11 -1.56 7.19 C-1.26 4.57 -0.84 2.53 0 0 Z " fill="#64A150" transform="translate(247,375)"/>
<path d="M0 0 C7.16 0.92 13.48 1.88 20 5 C21.66 5.36 23.33 5.7 25 6 C24.55 9.73 24.09 13.46 23.62 17.19 C23.5 18.24 23.37 19.3 23.24 20.38 C23.05 21.92 23.05 21.92 22.85 23.48 C22.74 24.42 22.62 25.36 22.5 26.32 C21.98 29.08 21.13 31.43 20 34 C15.61 30.52 14.34 26.26 13 21 C13 20.34 13 19.68 13 19 C12.01 18.67 11.02 18.34 10 18 C8.43 16.26 8.43 16.26 6.88 14.12 C6.1 13.08 6.1 13.08 5.3 12.01 C4 10 4 10 3 7 C2.01 6.34 1.02 5.68 0 5 C-0.19 2.38 -0.19 2.38 0 0 Z " fill="#3B694F" transform="translate(278,272)"/>
<path d="M0 0 C1.13 0.18 1.13 0.18 2.29 0.37 C9.83 1.52 17.33 2.31 24.94 2.94 C32.71 3.59 40.14 4.66 47.77 6.34 C52.16 7.24 56.54 7.7 61 8 C61.33 7.34 61.66 6.68 62 6 C66 11.62 66 11.62 66 15 C62.41 15.15 59.43 15.13 55.97 14.08 C50.92 12.57 45.73 12.14 40.5 11.56 C39.41 11.43 38.33 11.3 37.21 11.17 C31.61 10.5 26.01 9.9 20.39 9.39 C18.32 9.17 16.25 8.96 14.19 8.75 C13.22 8.68 12.26 8.6 11.26 8.53 C4.75 7.82 4.75 7.82 2.48 5.33 C1.36 3.39 1.36 3.39 0 0 Z " fill="#A675C1" transform="translate(173,249)"/>
<path d="M0 0 C9.16 4.29 9.16 4.29 10.73 8.61 C9.13 8.63 7.52 8.65 5.92 8.67 C4.58 8.69 4.58 8.69 3.21 8.7 C0.73 8.61 0.73 8.61 -2.27 7.61 C-4.77 7.28 -7.26 7 -9.77 6.73 C-19.32 5.67 -28.79 4.17 -38.27 2.61 C-37.24 -0.38 -36.31 -1.37 -33.62 -3.12 C-22.92 -7.18 -10.16 -4.33 0 0 Z " fill="#CCA3E3" transform="translate(211.26953125,236.39453125)"/>
<path d="M0 0 C0.62 0.31 1.23 0.62 1.87 0.94 C3.26 1.63 4.66 2.32 6.06 3 C8 4 8 4 11 6 C13.32 6.71 15.65 7.38 18 8 C11.5 16.13 0.55 18.32 -9.09 20.91 C-12 21 -12 21 -14.82 19.31 C-16.94 17.06 -17.68 16.02 -18 13 C-17.29 12.65 -16.57 12.3 -15.84 11.93 C-9.55 8.69 -4.65 5.36 0 0 Z " fill="#6B3781" transform="translate(374,292)"/>
<path d="M0 0 C0.66 0.33 1.32 0.66 2 1 C1.81 1.56 1.61 2.12 1.41 2.7 C0.91 5.53 1.45 7.08 2.44 9.75 C2.72 10.55 3.01 11.35 3.31 12.17 C3.54 12.78 3.76 13.38 4 14 C13.26 12.07 21.43 8.92 30 5 C30.5 7.47 30.5 7.47 31 10 C31.99 9.67 32.98 9.34 34 9 C34.5 13.45 34.5 13.45 35 18 C33.02 18.66 31.04 19.32 29 20 C28 19 28 19 27.94 15.94 C27.96 14.97 27.98 14 28 13 C27.05 13.58 26.1 14.16 25.12 14.75 C21.25 16.98 17.21 18.58 13.04 20.17 C11.04 20.83 11.04 20.83 10 22 C5.21 22.14 1.87 21.68 -1.94 18.69 C-5.56 13.96 -6.66 11.12 -6 5 C-4.13 2.64 -2.68 1.34 0 0 Z " fill="#B285CA" transform="translate(362,61)"/>
<path d="M0 0 C1.19 -0 1.19 -0 2.41 -0.01 C4.5 0.12 4.5 0.12 6.5 1.12 C7.47 3.56 8.32 5.95 9.12 8.44 C9.47 9.45 9.47 9.45 9.82 10.49 C10.94 13.91 11.5 16.49 11.5 20.12 C3.25 18.47 -5 16.83 -13.5 15.12 C-14.16 13.14 -14.82 11.16 -15.5 9.12 C-14.04 7.81 -12.59 6.5 -11.12 5.19 C-10.31 4.46 -9.5 3.73 -8.66 2.97 C-5.59 0.35 -3.96 -0.01 0 0 Z " fill="#D2A9E8" transform="translate(220.5,85.875)"/>
<path d="M0 0 C2.4 1.89 3.3 2.83 4.2 5.73 C4.39 8.96 4.39 8.96 4.32 12.48 C4.31 13.65 4.29 14.82 4.27 16.02 C4.25 16.92 4.22 17.81 4.2 18.73 C3.87 18.07 3.54 17.41 3.2 16.73 C2.21 16.4 1.22 16.07 0.2 15.73 C0.2 14.41 0.2 13.09 0.2 11.73 C-0.83 11.99 -1.85 12.25 -2.91 12.52 C-4.27 12.84 -5.63 13.16 -6.99 13.48 C-8 13.74 -8 13.74 -9.03 14.01 C-11.03 14.46 -11.03 14.46 -14.8 14.73 C-17.68 12.89 -17.68 12.89 -19.8 10.73 C-20.7 10.01 -20.7 10.01 -21.61 9.29 C-23.28 7.1 -23.02 5.4 -22.8 2.73 C-23.46 2.4 -24.12 2.07 -24.8 1.73 C-17.35 -1.85 -7.76 -3.53 0 0 Z " fill="#B487CB" transform="translate(365.80078125,348.2734375)"/>
<path d="M0 0 C4.71 1.48 5.6 2.79 8.12 6.94 C9.5 10.38 9.25 11.58 8.38 15.06 C4.96 16.24 1.54 17.4 -1.88 18.56 C-2.84 18.9 -3.81 19.23 -4.81 19.57 C-5.74 19.89 -6.68 20.21 -7.64 20.53 C-8.5 20.82 -9.36 21.12 -10.24 21.42 C-12.62 22.06 -12.62 22.06 -16.62 22.06 C-15.76 15.75 -12.15 11.22 -8.62 6.06 C-8.19 5.38 -7.75 4.69 -7.3 3.98 C-4.99 0.7 -4.09 0.07 0 0 Z " fill="#CEA4E4" transform="translate(370.625,238.9375)"/>
<path d="M0 0 C1.91 0.13 1.91 0.13 3.91 1.13 C4.24 13.34 4.57 25.55 4.91 38.13 C-0.21 35.57 -0.21 35.57 -2.09 33.13 C-2.97 30.38 -2.97 30.38 -3.65 27.13 C-3.9 25.97 -4.14 24.82 -4.39 23.62 C-4.62 22.47 -4.85 21.32 -5.09 20.13 C-5.3 19.14 -5.51 18.14 -5.72 17.11 C-6.8 11.69 -7.4 6.66 -7.09 1.13 C-5.19 -0.77 -2.52 0.01 0 0 Z " fill="#B2D978" transform="translate(250.08984375,342.8671875)"/>
<path d="M0 0 C6.1 0.24 8.94 1.65 13 6 C13.88 9.31 13.88 9.31 14 12 C10.56 14.29 9.28 15 5 15 C4.67 15.99 4.34 16.98 4 18 C2.11 19.35 2.11 19.35 -0.25 20.62 C-1.02 21.05 -1.79 21.48 -2.58 21.91 C-5.06 23.03 -7.32 23.57 -10 24 C-9.55 17.75 -8.09 13.47 -5 8.06 C-4.45 7.06 -4.45 7.06 -3.88 6.03 C-1.22 1.22 -1.22 1.22 0 0 Z " fill="#CEA5E4" transform="translate(316,326)"/>
<path d="M0 0 C0.33 0 0.66 0 1 0 C1.13 0.85 1.27 1.71 1.4 2.59 C1.58 3.69 1.76 4.8 1.94 5.94 C2.11 7.04 2.29 8.14 2.46 9.28 C2.72 11.9 2.72 11.9 4 13 C4.46 17.34 3.25 20.03 1.31 23.88 C-2.15 31.05 -4.63 38.4 -7 46 C-7.66 46 -8.32 46 -9 46 C-9.5 48.48 -9.5 48.48 -10 51 C-11.98 51.5 -11.98 51.5 -14 52 C-13.43 44.12 -11.48 36.93 -9.25 29.38 C-8.89 28.14 -8.53 26.9 -8.16 25.63 C-5.65 17.01 -2.99 8.46 0 0 Z " fill="#B5DB79" transform="translate(301,406)"/>
<path d="M0 0 C8.16 0.2 8.16 0.2 11.62 3.5 C12.8 4.74 12.8 4.74 14 6 C17.68 6.89 17.68 6.89 21 7 C20.45 13.5 18.73 20.27 14 25 C13.36 27.07 13.36 27.07 13 29 C12.34 29 11.68 29 11 29 C9.54 26.35 9 25.11 9 22 C8.34 22 7.68 22 7 22 C6.75 21.04 6.49 20.07 6.23 19.08 C5.89 17.81 5.54 16.55 5.19 15.25 C4.85 14 4.51 12.74 4.17 11.45 C3.1 8.29 1.97 6.6 0 4 C0 2.68 0 1.36 0 0 Z " fill="#53924E" transform="translate(307,393)"/>
<path d="M0 0 C1.89 3.27 2.6 6.25 3 10 C2 13 2 13 -0.12 14.08 C-3.43 15.14 -6.73 15.99 -10.12 16.75 C-11.34 17.03 -12.56 17.32 -13.82 17.61 C-17 18 -17 18 -20 16 C-20.73 13.62 -20.73 13.62 -21.19 10.88 C-21.35 9.96 -21.5 9.05 -21.67 8.12 C-21.83 7.07 -21.83 7.07 -22 6 C-20.95 5.73 -19.9 5.46 -18.81 5.19 C-15.07 4.2 -15.07 4.2 -12.38 2.38 C-9.64 0.79 -8.11 0.66 -5 1 C-4.34 1.33 -3.68 1.66 -3 2 C-2.01 2.33 -1.02 2.66 0 3 C0 2.01 0 1.02 0 0 Z " fill="#71AC5C" transform="translate(260,319)"/>
<path d="M0 0 C0.33 0 0.66 0 1 0 C1 2.97 1 5.94 1 9 C1.66 9 2.32 9 3 9 C5 12 5 12 5 15 C5.66 15 6.32 15 7 15 C8.71 16.62 10.37 18.29 12 20 C12.49 20.43 12.98 20.85 13.49 21.29 C15.56 23.64 16.51 26.11 17.69 29 C18.34 30.58 18.34 30.58 19.01 32.19 C20 35 20 35 20 38 C20.66 38 21.32 38 22 38 C21.67 41.96 21.34 45.92 21 50 C19.51 49.5 19.51 49.5 18 49 C17 46.81 17 46.81 16 44 C15.48 43.05 14.97 42.1 14.44 41.12 C12.87 37.71 12.37 34.73 12 31 C11.34 31 10.68 31 10 31 C9.75 30.2 9.5 29.39 9.25 28.56 C8.84 27.72 8.43 26.87 8 26 C7.36 25.86 6.72 25.71 6.06 25.56 C4 25 4 25 2.31 22.19 C0.2 17.07 -0.13 12.77 -0.06 7.25 C-0.06 6.55 -0.05 5.86 -0.05 5.14 C-0.04 3.42 -0.02 1.71 0 0 Z " fill="#64A13C" transform="translate(275,283)"/>
<path d="M0 0 C0.75 3.19 0.75 3.19 1 7 C-0.88 9.81 -0.88 9.81 -3 12 C-3.33 12.66 -3.66 13.32 -4 14 C-6 15 -8 16 -10 17 C-10.54 17.58 -11.07 18.15 -11.62 18.75 C-12.08 19.16 -12.53 19.57 -13 20 C-15.14 19.75 -16.46 19.54 -18 18 C-21.01 13.91 -21.3 11.02 -21 6 C-16.27 3.19 -11.81 2.27 -6.39 1.43 C-4.02 1 -2.39 0 0 0 Z " fill="#406958" transform="translate(254,296)"/>
<path d="M0 0 C1 1 1 1 1.13 3.47 C1.13 4.47 1.13 5.47 1.12 6.5 C1.13 8 1.13 8 1.13 9.53 C1 12 1 12 0 13 C-1.48 13.1 -2.96 13.13 -4.44 13.12 C-5.24 13.13 -6.04 13.13 -6.87 13.13 C-9 13 -9 13 -11 12 C-12.87 11.93 -14.75 11.92 -16.62 11.94 C-18.13 11.95 -18.13 11.95 -19.66 11.96 C-20.82 11.98 -20.82 11.98 -22 12 C-22 12.66 -22 13.32 -22 14 C-22.99 13.67 -23.98 13.34 -25 13 C-24.34 11.02 -23.68 9.04 -23 7 C-22.34 7 -21.68 7 -21 7 C-20.67 6.01 -20.34 5.02 -20 4 C-13.86 -0.89 -7.63 -0.67 0 0 Z " fill="#C89EDF" transform="translate(182,190)"/>
<path d="M0 0 C0.33 0.66 0.66 1.32 1 2 C4.3 1.67 7.6 1.34 11 1 C4.72 10.35 -3.15 15.82 -14 19 C-19.09 19.95 -23.97 20.51 -29 19 C-26.13 17.08 -23.66 16.07 -20.44 14.88 C-12.24 11.53 -6.14 6.27 0 0 Z " fill="#854DA2" transform="translate(352,381)"/>
<path d="M0 0 C4.47 0.73 6.51 2.1 10 5 C11.98 6.04 13.97 7.06 16 8 C15.45 11.67 15.45 11.67 13.47 13.14 C12.5 13.58 12.5 13.58 11.51 14.04 C10.8 14.37 10.1 14.7 9.37 15.05 C8.63 15.38 7.89 15.72 7.12 16.06 C5.67 16.74 4.21 17.41 2.76 18.1 C1.79 18.54 1.79 18.54 0.79 18.99 C-1.09 19.94 -1.09 19.94 -2.61 21.62 C-4 23 -4 23 -6 23 C-4.65 15.12 -2.46 7.61 0 0 Z " fill="#78458F" transform="translate(350,49)"/>
<path d="M0 0 C-0.03 0.9 -0.03 0.9 -0.07 1.83 C-0.09 2.63 -0.11 3.43 -0.12 4.25 C-0.16 5.43 -0.16 5.43 -0.2 6.64 C-0.11 9.39 -0.11 9.39 2 13 C6.95 13 11.9 13 17 13 C16.34 15.31 15.68 17.62 15 20 C16.32 20 17.64 20 19 20 C18.25 24.75 18.25 24.75 16 27 C12.88 26.62 12.88 26.62 10 26 C10.61 23.04 11.25 21.62 13 19 C11.98 18.97 10.95 18.95 9.89 18.92 C8.53 18.87 7.17 18.81 5.81 18.75 C4.8 18.73 4.8 18.73 3.77 18.71 C-1.06 18.47 -3.59 17.41 -7 14 C-8.48 11.04 -8.06 8.26 -8 5 C-7.34 4.67 -6.68 4.34 -6 4 C-5.67 3.01 -5.34 2.02 -5 1 C-2 0 -2 0 0 0 Z " fill="#A878BF" transform="translate(395,266)"/>
<path d="M0 0 C3.25 5.57 4.94 11.66 6 18 C5.67 18.99 5.34 19.98 5 21 C4.13 20.33 4.13 20.33 3.23 19.64 C-3.16 14.93 -9.57 11.77 -17 9 C-17 7.68 -17 6.36 -17 5 C-16.46 4.81 -15.91 4.61 -15.36 4.41 C-14.64 4.15 -13.92 3.89 -13.19 3.62 C-12.48 3.37 -11.77 3.11 -11.04 2.85 C-3.8 -0.17 -3.8 -0.17 0 0 Z " fill="#7A4791" transform="translate(186,95)"/>
<path d="M0 0 C1.98 0.66 3.96 1.32 6 2 C7.49 10.43 7.49 10.43 6 14 C2.6 16.37 0.78 17.07 -3.38 16.69 C-4.24 16.46 -5.11 16.23 -6 16 C-6 15.34 -6 14.68 -6 14 C-8.97 13.34 -11.94 12.68 -15 12 C-15 11.34 -15 10.68 -15 10 C-15.95 9.69 -16.9 9.38 -17.88 9.06 C-21 8 -21 8 -23 7 C-23 8.65 -23 10.3 -23 12 C-23.99 11.67 -24.98 11.34 -26 11 C-25.74 8.66 -25.41 6.32 -25 4 C-23 3 -23 3 -19.5 4.12 C-15.27 5.78 -11.29 7.86 -7.3 10.01 C-4.8 11.26 -4.8 11.26 -1 11 C-0.83 9.54 -0.67 8.08 -0.5 6.62 C-0.36 5.41 -0.36 5.41 -0.22 4.16 C0.03 2.03 0.03 2.03 0 0 Z " fill="#BA8DD0" transform="translate(172,105)"/>
<path d="M0 0 C2.31 0.81 2.31 0.81 5 3 C8.49 10.65 8.35 18.76 8 27 C6.35 27.66 4.7 28.32 3 29 C2.62 27.68 2.62 27.68 2.23 26.33 C1.89 25.17 1.54 24.01 1.19 22.81 C0.85 21.66 0.51 20.52 0.17 19.33 C-0.92 16.23 -2.3 13.79 -4 11 C-3.79 6.86 -1.93 3.61 0 0 Z " fill="#A0CE7F" transform="translate(333,324)"/>
<path d="M0 0 C0.33 0 0.66 0 1 0 C1.27 0.85 1.54 1.69 1.81 2.56 C3.36 7.04 5.21 11.35 7.25 15.62 C8.17 18.54 7.79 20.07 7 23 C6.66 25 6.33 27 6 29 C4.68 28.67 3.36 28.34 2 28 C1.67 26.68 1.34 25.36 1 24 C0.34 24 -0.32 24 -1 24 C-1.33 23.01 -1.66 22.02 -2 21 C-2.66 20.67 -3.32 20.34 -4 20 C-4.49 12.46 -2.91 6.94 0 0 Z " fill="#8ABE6D" transform="translate(306,392)"/>
<path d="M0 0 C4.58 0.55 8.15 1.4 12 4 C14.02 7.05 16 10.28 16 14 C12.33 15.62 8.92 17.11 5 18 C2.67 12.02 0.57 6.42 0 0 Z " fill="#9966B5" transform="translate(145,134)"/>
<path d="M0 0 C0.25 0.53 0.51 1.06 0.77 1.61 C1.11 2.32 1.46 3.02 1.81 3.75 C2.15 4.45 2.49 5.14 2.83 5.86 C4.04 8.08 5.44 10.01 7 12 C5.46 12.09 5.46 12.09 3.89 12.18 C2.53 12.27 1.17 12.35 -0.19 12.44 C-0.86 12.48 -1.53 12.52 -2.23 12.56 C-5.9 12.79 -9.42 13.17 -13 14 C-5.44 0 -5.44 0 0 0 Z " fill="#7B4892" transform="translate(397,254)"/>
<path d="M0 0 C2.23 -0.08 4.46 -0.14 6.69 -0.19 C8.55 -0.24 8.55 -0.24 10.45 -0.29 C14.23 0.02 16.05 0.66 19 3 C19.33 3.99 19.66 4.98 20 6 C16.7 6.33 13.4 6.66 10 7 C10 7.66 10 8.32 10 9 C4.25 10.12 4.25 10.12 2 9 C2 6.36 2 3.72 2 1 C1.34 0.67 0.68 0.34 0 0 Z " fill="#CBA1E1" transform="translate(349,347)"/>
<path d="M0 0 C0.66 0 1.32 0 2 0 C1.67 1.98 1.34 3.96 1 6 C0.34 6 -0.32 6 -1 6 C-1 6.66 -1 7.32 -1 8 C-1.66 8 -2.32 8 -3 8 C-3.02 8.91 -3.04 9.81 -3.06 10.75 C-3.87 16.78 -7.68 22.04 -11 27 C-11.33 27 -11.66 27 -12 27 C-11.66 16.73 -7.29 7.29 0 0 Z " fill="#C89EDD" transform="translate(307,331)"/>
<path d="M0 0 C0.33 0 0.66 0 1 0 C1 2.97 1 5.94 1 9 C1.66 9 2.32 9 3 9 C5 12 5 12 5 15 C5.66 15 6.32 15 7 15 C7.99 18.3 8.98 21.6 10 25 C8.35 25.33 6.7 25.66 5 26 C1.03 19.35 -0.16 15.08 -0.06 7.25 C-0.06 6.55 -0.05 5.86 -0.05 5.14 C-0.04 3.42 -0.02 1.71 0 0 Z " fill="#6EAB64" transform="translate(275,283)"/>
<path d="M0 0 C3.51 0.03 4.68 0.27 7.81 2.12 C9.75 4.31 9.75 4.31 9.75 7.31 C4.8 7.31 -0.15 7.31 -5.25 7.31 C-5.25 0.17 -5.25 0.17 0 0 Z " fill="#CCA3E2" transform="translate(405.25,266.6875)"/>
<path d="M0 0 C-1.35 4.9 -3.43 8.34 -6.5 12.38 C-6.9 12.92 -7.31 13.47 -7.72 14.03 C-8.76 15.39 -9.88 16.7 -11 18 C-11.66 18 -12.32 18 -13 18 C-13.66 19.32 -14.32 20.64 -15 22 C-15.67 20.31 -15.67 20.31 -16 18 C-13.42 12.23 -7.26 0 0 0 Z " fill="#C297D8" transform="translate(359,244)"/>
<path d="M0 0 C0.33 0 0.66 0 1 0 C1.27 0.85 1.54 1.69 1.81 2.56 C3.36 7.04 5.21 11.35 7.25 15.62 C8.15 18.46 7.81 20.17 7 23 C3.15 19.56 1.33 16.99 0 12 C-0.33 11.34 -0.66 10.68 -1 10 C-1.13 8.12 -1.13 8.12 -1.12 6 C-1.13 4.95 -1.13 4.95 -1.13 3.88 C-1 2 -1 2 0 0 Z " fill="#6FAB64" transform="translate(306,392)"/>
<path d="M0 0 C3.8 1.9 6.5 3.92 9.75 6.62 C11.23 7.85 11.23 7.85 12.73 9.1 C13.86 10.04 13.86 10.04 15 11 C14.01 12.49 14.01 12.49 13 14 C9.54 12.75 6.85 11.32 4 9 C3.67 9.66 3.34 10.32 3 11 C2.01 7.37 1.02 3.74 0 0 Z " fill="#9E6EB5" transform="translate(378,244)"/>
<path d="M0 0 C0.66 0 1.32 0 2 0 C2.67 1.96 3.34 3.92 4 5.88 C4.56 7.51 4.56 7.51 5.12 9.18 C6 12 6 12 6 14 C2.63 12.6 0.75 11.24 -1 8 C-1.25 4.31 -1.25 4.31 -1 1 C-0.67 0.67 -0.34 0.34 0 0 Z " fill="#6E3885" transform="translate(301,378)"/>
</svg>
